<svg width="544" height="508" viewBox="0 0 544 508" fill="none" xmlns="http://www.w3.org/2000/svg">
<path d="M161.765 41.2973C147.198 71.694 140.895 96.5844 140.766 101.157C138.009 101.457 131.753 112.581 128.398 113.54C121.127 116.08 111.177 121.832 98.9461 134.705C87.9108 148.945 65.1027 175.553 69.5731 213.715C71.0969 226.724 72.4671 240.663 78.7992 251.411C88.16 267.299 100.046 287.045 166.297 308.121C212.364 322.776 245.529 332.79 269.694 332.84C305.39 332.915 348.773 330.042 386.658 316.651C415.471 306.467 431.11 300.275 438.021 295.931C452.017 287.135 471.127 276.806 474.156 251.034C478.753 211.926 479.579 163.619 474.699 150.819C469.563 137.348 462.811 127.309 452.576 121.583C437.855 113.348 438.585 114.82 429.362 106.017C425.541 102.369 397.664 89.2944 394.415 81.7834C384.839 59.6388 379.857 16.4938 369.64 15.0144C365.021 14.3455 358.404 15.3534 354.229 22.856C341.263 46.1573 346.945 82.4688 330.981 85.0624C326.884 85.7281 315.87 87.2113 301.536 85.0624C268.852 80.1626 229.462 89.2195 217.525 84.3096C212.674 82.3138 208.702 74.1018 202.595 65.9037C193.695 53.9562 188.617 34.9935 178.044 32.0961C175.483 31.3942 172.599 31.9722 169.968 33.1632L169.935 33.1781C167.313 34.365 164.47 35.6521 161.765 41.2973Z" fill="black" stroke="black" stroke-width="29.7143" stroke-linecap="round"/>
<path d="M265.02 240.615C267.7 240.615 274.134 240.588 275.793 240.762C276.394 240.825 276.359 241.392 276.331 241.74C276.24 242.867 274.397 245.652 272.631 248.339C272.111 249.129 271.509 249.504 271.082 249.725C270.67 249.939 270.196 249.943 269.779 249.869C267.267 249.422 264.611 245.306 263.982 244.246C263.728 243.38 263.605 242.636 263.471 242.115C263.4 241.863 263.323 241.64 263.162 241.253" stroke="white" stroke-width="8" stroke-linecap="round"/>
<path d="M270.572 251.529C270.442 251.764 269.528 253.091 268.685 253.956C267.976 254.683 264.099 257.171 261.267 258.761C258.743 259.023 255.029 259.022 254.06 258.78C253.325 258.573 252.096 258.195 250.479 257.555" stroke="white" stroke-width="8" stroke-linecap="round"/>
<path d="M268.467 253.074C268.468 253.272 269.075 254.446 270.561 255.945C272.183 257.581 275.554 258.404 278.747 258.544C280.293 258.613 281.859 257.905 283.267 257.336C284.537 256.525 285.237 255.826 285.917 255.131C286.076 254.966 286.227 254.802 286.392 254.564" stroke="white" stroke-width="8" stroke-linecap="round"/>
<path d="M4 227.842H74.9748" stroke="#2E2D2D" stroke-width="8" stroke-linecap="round"/>
<path d="M59.8963 244.367C56.1098 244.207 43.7506 244.68 21.6236 251.858C16.6546 253.722 14.2465 254.86 12.5356 255.757C10.8247 256.655 9.88405 257.278 7.79004 258.082" stroke="#2E2D2D" stroke-width="8" stroke-linecap="round"/>
<path d="M23.1035 273.643C24.6014 273.643 30.1024 273.234 41.836 270.039C44.2436 269.288 45.0286 268.934 46.9778 267.712C48.9269 266.489 52.0166 264.41 55.6463 262.055" stroke="#2E2D2D" stroke-width="8" stroke-linecap="round"/>
<path d="M539.975 226.842H469" stroke="#2E2D2D" stroke-width="8" stroke-linecap="round"/>
<path d="M484.078 243.367C487.865 243.207 500.224 243.68 522.351 250.858C527.32 252.722 529.728 253.86 531.439 254.757C533.15 255.655 534.091 256.278 536.185 257.082" stroke="#2E2D2D" stroke-width="8" stroke-linecap="round"/>
<path d="M520.871 272.643C519.373 272.643 513.872 272.234 502.139 269.039C499.731 268.288 498.946 267.934 496.997 266.712C495.048 265.489 491.958 263.41 488.328 261.055" stroke="#2E2D2D" stroke-width="8" stroke-linecap="round"/>
<path d="M405.221 378.859C403.254 378.021 396.764 373.624 390.527 366.203C384.874 359.477 378.145 353.1 371.056 349.768C360.812 344.953 348.949 340.978 333.922 340.843C323.552 340.749 318.179 347.738 315.845 350.099C305.972 360.089 327.359 384.975 333.922 398.762C339.828 411.169 353.059 412.014 365.3 417.696C373.64 421.568 371.12 421.942 384.148 424.949C387.5 425.686 388.226 427.082 390.527 427.782C406.15 432.54 413.974 433.219 418.233 433.855" stroke="black" stroke-width="8" stroke-linecap="round"/>
<path d="M153.013 378.868C154.979 378.031 161.469 373.634 167.707 366.213C173.36 359.487 180.088 353.11 187.178 349.777C197.422 344.963 209.284 340.988 224.311 340.852C234.681 340.759 240.055 347.748 242.388 350.109C252.261 360.099 230.874 384.984 224.311 398.771C218.405 411.178 205.174 412.023 192.933 417.706C184.593 421.577 187.113 421.951 174.085 424.959C170.734 425.696 170.008 427.091 167.707 427.792C152.083 432.549 144.259 433.229 140 433.864" stroke="black" stroke-width="8" stroke-linecap="round"/>
<path d="M404.059 334.084C404.059 335.646 409.558 354.137 418.402 378.862C420.449 384.585 420.959 391.01 421.962 405.651C422.145 451.663 421.269 463.741 420.534 473.114C420.385 475.56 420.24 477.646 419.469 482.1" stroke="black" stroke-width="8" stroke-linecap="round"/>
<path d="M159.866 476.408C160.091 476.408 179.754 483.831 212.717 495.827C226.04 500.675 232.824 501.895 250.164 502.828C267.503 503.761 295.288 504.086 315.197 503.262C346.392 501.97 362.457 497.114 372.817 494.441C393.553 489.644 399.247 487.611 409.44 484.729C412.073 484.185 414.199 484.052 415.743 481.654" stroke="black" stroke-width="8" stroke-linecap="round"/>
<path d="M160 332.852C159.967 332.985 156.517 339.72 149.811 355.605C146 364.633 143.528 376.393 141.931 382.813C139.678 391.868 139.123 397.629 138.702 402.553C138.537 404.487 138.172 417.408 138.003 435.928C137.901 447.148 140.251 460.531 141.246 466.472C141.485 467.895 141.829 469.285 142.417 470.482C143.785 473.268 148.339 474.12 150.952 475.526C151.6 475.859 152.221 476.181 152.899 476.477C153.578 476.773 154.295 477.034 155.184 476.683" stroke="black" stroke-width="8" stroke-linecap="round"/>
<path d="M224.268 195.847C224.304 195.847 222.348 195.847 219.085 196.049C214.558 196.329 213.186 203.353 213.149 204.403C213.112 205.442 215.569 205.634 217.74 205.656C222.618 205.706 227.761 199.309 229.802 198.28C230.292 198.034 230.624 197.612 230.482 197.304C229.163 194.448 222.762 196.994 216.607 199.047C215.328 199.473 214.987 199.862 214.81 200.248C214.634 200.635 214.662 201.085 215.739 201.319C218.88 201.999 221.682 201.355 222.713 200.865C224.728 199.907 226.239 197.023 227.611 194.591C228.099 193.724 227.346 193.256 226.757 193.058C224.488 192.293 217.112 197.073 211.732 201.041C211.082 201.52 210.941 202.059 210.812 202.513C210.683 202.967 210.67 203.434 211.841 203.913C215.22 205.297 220.048 205.385 223.674 205.321C226.637 205.268 229.246 201.144 231.412 197.757C232.833 195.534 232.473 193.831 232.151 192.909C231.493 191.022 223.981 191.812 220.01 192.587C218.063 192.967 216.884 196.338 216.355 198.659C216.116 199.708 217.491 200.415 218.411 200.866C218.873 201.072 219.328 201.23 219.763 201.182C220.198 201.133 220.599 200.873 221.012 200.605" stroke="white" stroke-width="8" stroke-linecap="round"/>
<path d="M302.809 199.49C303.147 199.495 309.971 201.969 315.129 203.061C315.755 203.194 316.119 202.508 316.38 202.066C316.895 201.19 316.914 199.874 316.72 198.558C316.327 195.885 309.045 194.883 304.255 194.447C303.448 194.373 302.978 194.906 302.646 195.295C302.014 196.037 301.966 197.056 302.161 197.971C302.671 200.364 306.188 201.24 313.872 203.124C316.835 203.85 318.529 203.293 319.397 202.727C320.256 202.166 320.501 200.888 320.755 199.71C320.997 198.586 320.532 197.42 319.808 196.375C318.307 194.206 313.782 192.821 309.957 191.703C308.456 191.265 307.132 191.495 306.004 191.999C304.476 192.682 303.816 194.37 303.47 195.955C302.528 200.279 305.181 203.52 307.479 206.594C309.107 208.772 312.049 209.524 315.949 210.299C319.166 210.939 323.128 207.859 325.258 205.427C326.202 204.35 325.196 202.667 324.569 201.711C323.013 199.336 315.854 196.85 308.936 195.122C306.342 194.474 304.489 195.026 303.574 195.496C302.666 195.963 302.4 197.216 302.194 198.286C301.624 201.256 308.984 204.62 313.135 206.132C313.914 206.31 314.427 206.344 315.146 206.003C315.865 205.662 316.775 204.946 317.713 204.209" stroke="white" stroke-width="8" stroke-linecap="round"/>
<path d="M227.335 194.507C224.723 193.703 216.83 192.019 213.699 192.552C211.352 192.951 209.781 195.064 208.732 196.927C208.246 197.789 208.451 198.929 208.57 200.015C208.693 201.122 209.556 201.956 210.333 202.624C211.859 203.936 218.914 203.922 223.788 203.527C226.311 203.322 227.78 201.069 229.518 198.278C230.158 197.25 230.681 195.67 230.808 194.704C231.378 190.367 220.031 190.824 218.206 190.911C217.092 190.964 216.333 192.557 215.361 194.038C214.804 195.326 214.471 197.481 214.234 200.574C214.154 202.119 214.154 203.614 214.207 205.162" stroke="white" stroke-width="8" stroke-linecap="round"/>
<path d="M217.561 233.039C215.805 232.372 211.033 230.806 208.281 230.997C207.146 231.076 207.39 233.01 207.318 233.998C207.233 235.151 207.624 236.231 208.472 237.153C210.692 239.567 213.805 239.969 216.13 240.04C218.855 240.123 220.134 236.535 220.278 235.756C220.73 233.306 214.925 232.823 212.414 232.916C211.883 232.936 211.742 233.663 211.638 234.203C211.534 234.744 211.534 235.309 211.751 235.747C212.728 237.722 215.762 237.13 216.792 236.933C217.292 236.837 217.649 236.408 217.797 235.989C217.946 235.571 217.853 235.089 216.887 234.545C210.799 231.114 202.407 231.96 198.794 232.732C197.68 232.97 197.882 235.828 197.996 238.591C198.073 240.439 199.348 241.655 200.742 242.695C203.111 244.463 207.886 244.894 211.149 244.918C215.463 244.949 219.03 236.321 219.923 234.29C220.308 233.412 220.304 232.182 220.213 230.921C220.171 230.342 219.79 229.94 219.274 229.636C218.124 228.958 215.994 228.961 213.619 229.171C209.295 229.554 206.914 233.583 206.239 235.405C206.071 235.857 206.285 236.348 206.53 236.756C207.696 238.69 210.976 239.657 213.674 239.894C214.873 239.999 215.78 238.635 216.593 237.652C218.283 235.608 218.393 229.852 218.01 226.534C217.878 225.392 216.237 225.006 214.622 224.704C212.269 224.265 210.277 224.793 209.172 225.494C206.752 227.031 204.99 231.336 203.578 234.988C203.143 236.113 203.339 237.303 203.527 238.365C203.972 240.871 207.871 241.872 212.408 242.721C216.307 243.451 219.342 242.674 220.677 242.238C222.096 241.774 223.141 240.899 223.815 239.984C225.605 237.559 224.348 233.48 223.295 231.541C222.246 229.607 220.093 228.698 216.788 227.771C210.931 226.129 207.893 228.587 205.013 230.375C202.836 231.727 201.363 233.76 200.426 235.16C199.632 236.347 199.677 237.979 199.826 239.673C200.152 243.384 204.595 247.261 207.965 249.787C210.293 251.532 213.475 251.075 215.743 250.553C218.189 249.991 220.113 246.554 221.562 242.838C222.549 240.309 221.769 238.12 221.458 237.172C220.791 235.145 216.372 232.243 211.635 229.704C207.871 227.687 201.82 229.254 199.67 230.326C196.734 231.789 195.685 234.449 194.84 236.883C194.136 238.91 195.578 241.259 200.983 248.232C204.181 252.359 208.233 253.767 211.154 254.672C212.881 255.207 214.436 254.647 216.094 253.454C223.091 248.419 224.921 243.791 226.48 239.762C227.141 238.054 227.177 236.444 226.944 234.923C226.476 231.871 223.212 230.989 216.889 228.854C210.281 226.623 203.106 228.253 200.388 230.564C196.172 234.148 197.315 237.192 197.527 238.627C200.953 241.821 207.557 245.888 211.28 247.295C213.181 247.919 215.107 248.362 217.97 248.181" stroke="#F3C6D5" stroke-width="8" stroke-linecap="round"/>
<path d="M316.375 234.698C316.375 235.565 316.67 237.592 318.994 241.28C320.417 243.539 322.907 244.186 325.245 244.567C325.996 244.69 326.963 244.597 327.598 244.382C329.929 243.596 329.892 239.579 330.14 237.039C330.264 235.771 329.857 234.679 329.378 233.818C328.907 232.972 327.793 232.362 326.331 231.879C324.738 231.354 323.278 231.974 322.432 232.693C318.893 235.699 322.135 245.365 323.747 248.088C324.619 249.56 326.321 249.934 327.451 250.146C329.634 250.555 331.781 249.229 333.349 248.056C335.088 246.757 335.45 243.159 335.595 237.27C335.645 235.267 334.823 234.103 334.083 233.294C332.821 231.912 328.929 232.087 325.379 233.181C322.86 233.958 321.664 236.076 321.132 236.936C319.846 239.011 321.175 242.408 322.657 245.154C323.446 246.614 324.715 247.623 325.826 248.457C326.838 249.216 328.2 249.415 329.533 249.324C332.107 249.149 332.9 244.827 333.377 241.704C333.644 239.954 333.271 238.139 332.805 236.527C332.356 234.978 331.159 234.08 330.21 233.346C327.82 231.497 322.567 231.707 319.428 232.79C317.23 233.549 317.963 242.253 318.67 247.824C319.135 251.484 322.804 253.482 324.87 254.516C325.748 254.956 326.925 254.939 328.336 254.758C332.078 254.28 334.135 250.501 335.971 247.619C339.142 242.643 337.045 233.147 336.004 230.627C335.608 229.671 334.618 229.165 333.203 228.842C331.094 228.359 329.222 228.998 328.262 229.616C326.388 230.821 326.471 233.296 326.665 235.005C326.841 236.561 328.647 237.595 330.091 238.484C331.101 239.105 332.629 239.063 334.221 238.734C334.902 238.593 335.051 237.747 335.105 237.149C335.306 234.915 333.18 232.991 331.331 231.651C329.657 230.438 326.357 230.838 323.761 231.321C320.379 231.951 319.341 236.662 318.519 238.771C317.443 241.531 318.335 245.262 319.332 248.263C320.555 251.944 322.616 253.737 324.173 255.097C325.748 256.471 328.73 256.263 330.788 255.945C331.966 255.763 334.419 254.327 337.445 252.541C341.03 250.426 341.656 242.724 341.865 237.776C342.007 234.419 339.36 232.187 337.67 230.796C335.286 228.833 331.248 228.647 323.589 228.627C320.601 228.619 319.111 230.276 316.804 232.125C314.806 233.726 313.481 235.409 312.836 236.471C311.292 239.015 312.606 242.682 316.145 250.028C319.255 256.484 321.815 257.808 323.929 259.072C325.89 260.245 328.398 259.323 330.763 258.425C334.079 257.166 338.878 250.673 342.232 244.346C343.012 242.874 342.774 240.691 342.651 238.201C342.503 235.204 339.11 232.894 337.157 231.544C332.118 228.058 320.662 230.984 318.513 232.128C315.953 233.492 314.855 237.441 314.464 240.2C314.095 242.8 314.624 245.015 315.077 246.253C316.509 250.168 322.579 254.646 325.48 256.59C327.441 257.904 331.93 257.64 335.448 256.757C337.104 256.341 337.786 254.539 338.5 253.852C339.963 252.442 340.518 248.687 340.23 245.45C339.973 242.558 337.445 240.852 335.218 239.944C331.555 238.451 327.448 239.158 321.552 239.251C320.486 239.268 320.359 239.932 320.458 240.359C320.911 241.173 322.147 242.349 323.76 243.665C324.503 244.204 325.093 244.481 325.7 244.766" stroke="#F3C6D5" stroke-width="8" stroke-linecap="round"/>
<path d="M227.938 232.745C227.374 232.119 225.064 230.058 222.701 228.135C220.036 225.967 211.915 224.267 207.273 223.362C203.631 222.653 200.739 223.468 199.676 224.069C197.141 225.502 196.317 227.667 195.516 229.832C194.801 231.763 193.66 234.157 193.526 239.153C193.397 243.959 196.483 246.655 200.019 250.476C204.006 254.784 207.776 255.312 214.735 255.641C218.479 255.817 221.904 252.947 223.899 251.586C226.34 249.921 227.854 244.53 228.634 240.032C229.208 236.723 228.456 234.11 227.935 233.107C227.65 232.646 227.323 232.282 225.089 230.254C222.856 228.225 218.727 224.544 214.472 220.751" stroke="#F3C6D5" stroke-width="8" stroke-linecap="round"/>
</svg>
