<svg width="433" height="261" viewBox="0 0 433 261" fill="none" xmlns="http://www.w3.org/2000/svg">
<path d="M21.8382 214.975C21.8382 215.826 14.7588 226.51 5.21389 242.192C2.11038 247.291 5.11138 247.945 12.462 248.107C32.075 248.542 50.8935 250.258 75.4679 254.084C93.7378 256.929 124.3 257.554 158.846 254.31C193.392 251.066 231.128 242.898 264.637 233.805C298.145 224.712 326.282 214.941 348.427 204.851C387.145 187.208 405.377 170.522 412.196 163.164C422.75 151.775 424.794 138.228 427.729 118.209C431.58 91.9399 420.733 75.2483 408.154 61.0798C394.208 45.3708 378.738 35.9861 366.137 28.9237C343.888 16.4535 322.843 9.34478 310.754 6.48344C298.548 3.59452 271.333 3.49727 235.814 4.81249C212.37 5.6806 194.657 15.4226 170.207 30.7894C154.595 40.6015 134.482 57.5265 121.27 68.6855C102.227 84.7685 86.6974 108.421 68.9454 136.192C54.4562 158.592 41.5754 183.674 31.8873 199.828C30.2803 202.21 28.9253 204.293 24.9791 209.809" stroke="black" stroke-width="8" stroke-linecap="round"/>
<path d="M110.139 168.586C110.01 175.336 110.727 192.584 112.31 197.434C115.119 206.04 115.535 168.275 118.724 161.287C119.684 159.182 122.646 158.357 125.82 158.016C127.312 157.856 128.6 158.357 129.603 159.196C134.455 163.254 136.083 176.793 139.696 188.039C140.646 190.997 147.078 168.514 150.719 153.416C152.005 148.084 157.69 145.067 160.543 143.529C161.935 142.78 163.602 142.961 164.699 143.678C165.797 144.395 166.376 145.864 167.759 152.105C169.142 158.346 171.313 169.315 173.55 180.616" stroke="black" stroke-width="8" stroke-linecap="round"/>
<path d="M187.973 151.08C189.332 151.08 195.635 151.08 204.561 150.63C207.909 150.461 208.755 149.281 209.184 147.431C211.265 138.457 207.515 133.8 206.177 132.322C205.516 131.593 204.349 131.51 203.115 131.499C194.303 131.415 185.716 141.095 184.499 143.375C181.054 149.828 185.32 155.803 189.888 165.043C191.399 168.099 193.503 169.251 196.668 170.046C198.888 170.349 202.355 170.445 204.634 170.345C206.913 170.245 207.9 169.947 209.039 168.826" stroke="black" stroke-width="8" stroke-linecap="round"/>
<path d="M221.978 133.632C222.156 137.492 224.213 148.491 228.173 153.419C229.922 155.595 232.735 156.746 235.619 157.448C236.98 157.78 238.248 157.455 239.48 156.749C242.17 155.208 243.611 152.424 244.575 149.84C248.245 139.995 245.472 127.696 243.875 126.199C241.861 125.473 238.7 125.305 233.861 125.76C231.044 126.215 227.493 127.125 221.403 129.522" stroke="black" stroke-width="8" stroke-linecap="round"/>
<path d="M262.363 113.687C262.363 120.639 263.292 135.036 266.718 139.823C270.713 145.404 276.604 144.008 278.688 143.532C280.773 143.057 280.759 134.274 280.351 124.525C280.23 121.622 279.96 122.888 279.901 124.23C279.649 129.878 284.06 134.938 289.328 140.129C291.161 141.935 294.575 142.019 298.182 141.492C299.629 141.28 300.022 140.064 300.115 138.293C299.916 133.948 298.171 126.783 295.713 119.444C294.699 116.618 294.16 115.616 293.045 112.924" stroke="black" stroke-width="8" stroke-linecap="round"/>
</svg>
