<svg width="471" height="232" viewBox="0 0 471 232" fill="none" xmlns="http://www.w3.org/2000/svg">
<path d="M15.6359 218.87C15.7241 218.87 16.4811 219.937 18.4828 221.554C20.9605 223.556 24.5177 221.462 26.3488 220C28.1736 218.543 28.896 215.964 29.5002 213.306C30.1766 210.329 29.1502 207.355 27.7195 204.882C26.204 202.261 23.6242 200.58 20.8844 199.458C13.2401 196.327 6.23776 202.953 4.66571 204.746C3.04967 206.589 3.52834 209.808 3.69938 212.75C3.87036 215.691 5.44676 218.103 7.55974 219.837C10.3447 221.094 13.1589 221.953 15.6037 222.757C16.8354 223.219 18.0486 223.791 20.1003 223.809" stroke="black" stroke-width="7" stroke-linecap="round"/>
<path d="M53.6996 163.82C53.5035 166.531 54.0782 173.222 55.7981 175.888C57.5252 178.566 61.2229 179.322 64.8509 180.16C69.4355 181.219 73.1932 179.974 75.0949 178.344C78.9008 175.082 79.177 168.489 78.8861 163.256C78.4423 155.275 61.1401 156.247 56.3435 156.61C55.295 157.217 54.4025 158.4 53.4578 159.534C52.513 160.669 51.543 161.719 50.1797 163.944" stroke="black" stroke-width="7" stroke-linecap="round"/>
<path d="M112.335 139.769C112.145 142.814 113.156 152.552 117.133 157.243C120.147 160.799 124.656 162.058 127.401 163.112C129.936 164.084 132.664 163.656 135.212 162.76C137.859 161.83 140.336 159.319 143.019 157.078C145.294 155.177 145.803 152.109 146.104 148.718C146.487 144.419 145.201 140.595 142.988 138.328C136.844 136.321 130.016 135.821 125.566 136.074C123.591 136.327 122.191 136.833 118.555 138.797" stroke="black" stroke-width="7" stroke-linecap="round"/>
<path d="M167.358 81.3309C167.226 92.2674 165.906 93.1462 165.906 93.2689C161.998 95.7932 160.852 97.5935 160.279 101.68C159.707 111.954 164.155 135.036 169.093 152.533C167.176 155.703 161.636 161.998 164.973 172.952C168.058 183.081 172.113 195.395 181.467 202.872C191.365 210.783 203.504 219.791 219.449 223.288C236.782 227.089 256.689 229.997 277.187 227.177C297.49 224.383 317.581 219.875 331.626 208.619C354.857 190.002 365.69 166.55 375.648 164.302C381.51 162.978 403.457 164.948 435.7 148.438C449.473 141.386 462.931 136.301 464.389 127.95C468.716 103.175 468.781 61.2693 459.884 53.3889C449.773 44.4325 435.801 33.8783 424.393 36.4796C418.514 37.82 414.862 42.1009 413.282 41.2767C412.673 40.9592 412.51 38.888 411.508 36.4051C406.784 24.6896 400.16 6.3222 383.347 4.82042C358.003 2.55659 325.696 1.83696 312.364 14.2509C296.244 29.26 289.427 49.5007 278.985 62.1504C277.614 63.8101 276.216 61.9411 274.084 60.3409C260.093 49.8358 236.544 34.3484 222.905 38.798C201.973 45.6274 167.572 63.5654 167.358 81.3309Z" stroke="black" stroke-width="7" stroke-linecap="round"/>
<path d="M271.225 104.561C271.225 103.579 271.551 100.777 272.531 98.7361C274.461 94.719 285.028 96.0742 290.487 98.0199C292.146 98.6113 291.89 101.054 291.877 102.849C291.841 108.119 287.1 111.856 287.239 116.329C287.611 118.118 288.286 120.752 288.81 122.585C289.334 124.418 289.686 125.37 290.988 127.762" stroke="black" stroke-width="7" stroke-linecap="round"/>
<path d="M298.416 142.424C298.191 142.424 297.421 142.631 296.371 143.26C295.428 143.825 295.734 145.583 295.983 146.768C296.112 147.383 296.729 147.831 297.284 148.119C298.368 148.683 299.502 148.387 300.4 147.859C300.895 147.569 301.282 146.898 301.524 146.267C301.765 145.636 301.803 144.979 301.59 144.61C301.378 144.241 300.914 144.18 299.288 144.242" stroke="black" stroke-width="7" stroke-linecap="round"/>
</svg>
