<svg width="406" height="234" viewBox="0 0 406 234" fill="none" xmlns="http://www.w3.org/2000/svg">
<path d="M52.4172 32.1092C39.5764 51.1653 35.8746 69.8413 36.3432 72.7928C30.7164 75.8358 24.5858 83.656 22.2784 87.3354C17.9232 95.7402 12.2511 111.872 7.01114 131.832C6.77612 158.948 10.1953 179.055 23.4628 189.221C40.5117 202.286 82.7708 240.059 158.156 222.322C191.837 214.397 211.305 185.935 223.986 191.473C235.135 196.342 257.761 209.349 305.721 202.708C326.054 199.892 342.164 194.566 352.162 180.009C363.86 162.978 399.548 108.658 398.776 72.1355C398.641 65.7242 397.12 57.3461 389.544 49.1104L389.076 48.6015C370.717 28.6421 349.713 5.80617 322.074 7.04793C273.616 9.22505 243.205 11.499 208.77 36.0737C192.617 47.6011 191.871 70.8795 180.069 71.299C178.471 71.3559 176.899 68.5066 174.037 64.828C158.861 45.3175 135.384 12.1934 109.234 12.4693C87.1978 12.7017 64.3432 14.4108 52.4172 32.1092Z" fill="#8DC7E4" stroke="black" stroke-width="14" stroke-linecap="round"/>
</svg>
