<svg width="97" height="101" viewBox="0 0 97 101" fill="none" xmlns="http://www.w3.org/2000/svg">
<path d="M60.8218 49.8773C59.9711 47.1057 53.9509 39.0591 41.5713 27.5762C29.4676 16.3493 19.8345 14.7213 11.8167 15.0072C8.18496 15.1368 6.39419 22.6362 4.47429 30.8832C1.01667 45.7355 17.2056 63.5778 30.1632 77.4537C39.7578 87.7283 59.3784 93.783 71.2021 96.1317C78.5698 97.5953 83.2555 82.1154 88.9639 72.9685C93.9737 64.9411 93.402 37.3573 91.7059 18.5991C91.2542 13.6036 87.7259 10.2007 85.1508 7.42728C82.3423 4.40261 77.5721 3.55154 73.2173 4.2022C66.7074 16.4804 61.855 37.863 61.3647 45.8041C61.1648 49.2097 61.0645 51.3479 61.1512 53.7979" stroke="black" stroke-width="8" stroke-linecap="round"/>
</svg>
