<svg width="447" height="265" viewBox="0 0 447 265" fill="none" xmlns="http://www.w3.org/2000/svg">
<path d="M4.50735 226.077C3.7847 229.428 3.70544 238.867 5.12572 243.632C6.50228 248.25 13.633 249.209 20.5448 249.528C27.7491 249.862 33.9827 247.701 38.7215 244.726C41.1234 243.218 42.991 240.944 44.1564 238.345C45.3218 235.747 45.5934 232.696 45.115 230.086C38.0888 221.276 26.9789 216.488 21.4159 215.5C18.7666 215.279 16.47 215.627 11.411 218.494" stroke="black" stroke-width="8" stroke-linecap="round"/>
<path d="M59.1851 202.985C59.338 204.271 60.8143 206.661 64.022 209.823C71.8379 217.525 84.6568 214.999 89.1682 213.435C94.7245 211.508 94.0628 201.73 93.488 195.085C93.0094 189.553 87.995 185.627 82.7046 182.246C77.5656 178.963 71.9044 178.276 67.1438 179.341C64.8935 180.432 62.9792 182.642 61.993 185.447C61.0069 188.252 61.0069 191.584 61.0069 195.018" stroke="black" stroke-width="8" stroke-linecap="round"/>
<path d="M130.427 136.009C130.835 124.28 137.166 89.1272 161.135 59.2491C173.884 43.3559 203.699 31.377 235.29 16.7774C267.032 2.10853 302.242 2.34747 330.2 6.3199C345.387 8.47777 362.988 24.5786 381.592 38.221C393.304 46.8097 405.986 62.4471 422.034 83.6424C434.097 99.575 438.806 113.76 441.376 128.178C448.235 166.674 420.625 198.857 405.907 216.936C400.151 224.005 376.35 235.909 345.615 252.049C330.41 260.034 308.552 261.05 277.399 260.756C253.74 260.533 238.573 251.619 223.376 242.444C198.964 227.705 176.653 205.184 161.655 188.628C148.604 174.222 144.202 155.308 139.304 146.734C138.225 144.539 137.473 142.459 136.898 140.294C136.322 138.13 135.945 135.944 133.839 129.968" stroke="black" stroke-width="8" stroke-linecap="round"/>
<path d="M245.745 133.166C246.323 133.166 249.643 132.852 261.236 130.115C269.902 128.068 283.828 123.167 292.389 120.67C303.511 117.426 308.648 117.498 312.532 117.879C315.274 118.148 317.635 124.879 320.398 134.117C322.528 141.236 322.401 152.274 320.987 170.617C320.16 181.342 316.664 194.681 314.413 202.95C312.161 211.218 310.634 213.945 309.383 215.525C308.131 217.104 307.201 217.454 305.944 217.406C303.09 217.297 297.987 214.004 287.482 205.149C280.238 199.042 270.249 188.372 262.844 179.902C255.44 171.432 251.214 165.156 248.161 159.124C243.356 147.494 241.48 140.482 241.544 138.173C241.678 137.109 242.019 136.264 244.032 134.765" stroke="black" stroke-width="8" stroke-linecap="round"/>
<path d="M252.659 154.493C252.592 154.493 256.105 154.177 268.653 152.002C277.654 150.142 292.003 146.749 299.914 144.995C307.826 143.24 308.865 143.228 309.937 143.215" stroke="black" stroke-width="8" stroke-linecap="round"/>
<path d="M271.848 180.59C271.814 180.59 271.781 180.59 278.824 178.41C285.868 176.229 299.989 171.868 316.93 167.043" stroke="black" stroke-width="8" stroke-linecap="round"/>
<path d="M271.51 132.129C271.445 132.129 271.42 141.179 271.625 156.368C272.206 165.463 273.262 171.232 274.655 177.244C275.389 180.533 276.177 184.303 277.198 187.627" stroke="black" stroke-width="8" stroke-linecap="round"/>
<path d="M300.823 124.98C300.823 125.327 300.684 137.329 299.296 161.051C298.046 172.949 295.689 184.563 294.475 191.669C293.261 198.775 293.261 201.022 293.261 202.255" stroke="black" stroke-width="8" stroke-linecap="round"/>
<path d="M241.678 134.032C240.227 134.05 235.241 132.671 231.602 129.596C228.227 126.746 228.572 114.979 229.172 107.284C229.379 104.619 231.146 102.292 232.435 100.347C234.756 96.8438 239.459 96.3492 240.707 95.3528C245.799 91.2844 244.703 81.7661 248.236 76.9092C252.203 71.4561 257.858 69.6851 264.387 68.4432C269.478 67.4748 273.631 68.6972 275.47 69.4832C278.71 70.8686 279.242 76.0265 280.28 79.4346C280.696 80.8005 281.548 81.1814 282.228 81.064C287.982 80.0705 301.006 77.0779 307.925 77.4728C310.046 77.5938 311.399 79.6693 312.599 81.168C313.724 82.5717 313.947 86.1086 314.378 90.3951C314.813 94.727 320.741 96.1478 322.366 101.207C322.582 105.494 322.07 109.484 320.478 112.836C319.448 114.771 317.965 117.179 316.039 118.424" stroke="black" stroke-width="8" stroke-linecap="round"/>
</svg>
