<svg width="968" height="931" viewBox="0 0 968 931" fill="none" xmlns="http://www.w3.org/2000/svg">
<path d="M9.27637 281.5C12.1093 278.172 33.0468 190.583 38.8174 177.004C45.9415 160.241 47.838 148.206 50.413 131.005C54.0345 106.814 57.3416 85.0885 61.9508 65.4709C66.3834 46.6048 73.2131 26.6904 80.8551 16.1161C84.7976 10.6608 90.149 8.33549 96.6489 7.0991C113.543 3.88554 122.141 14.3844 132.238 19.9614C147.723 28.514 163.573 42.9789 180.804 56.1864C191.212 64.1642 199.62 70.456 208.217 76.4768C217.896 83.2556 233.244 70.6249 252.542 65.843C264.408 62.9028 280.299 56.7501 302.906 50.5971C334.975 41.8684 364.698 35.7203 382.541 33.1578C401.664 30.4114 418.211 27.7355 451.016 27.4493C477.269 27.2203 523.025 26.6492 562.607 29.6944C602.189 32.7395 634.21 39.3744 653.204 43.9018C686.134 51.7505 697.66 57.498 710.439 64.0033C720.346 69.0464 729.697 74.8722 738.458 78.5088C747.813 82.3921 760.105 72.596 774.374 66.1453C799.121 54.9576 811.45 49.5847 820.094 42.907C831.584 34.0293 842.627 28.0611 858.266 27.4493C870.689 26.9634 880.397 61.0591 887.438 87.1183C892.462 105.712 890.546 110.733 904.801 167.5C912.099 196.559 934.744 219.602 943.494 237.5C952.05 255 953.83 253.418 956.978 263.019C958.36 268.411 959.304 274.858 960.276 281.5" stroke="black" stroke-width="13" stroke-linecap="round"/>
<path d="M10.7764 275.51C10.7764 275.407 7 297.118 7 397.486C7 497.854 7 698.696 8.38669 802.853C9.77337 907.011 12.5467 908.398 15.961 909.832C19.3753 911.267 23.3464 912.708 34.7658 914.775C46.1853 916.842 64.9328 919.49 214.35 921.021C363.766 922.552 643.284 922.885 789.28 923.161C935.276 923.436 958.163 924.753 960.276 923.161C962.39 921.569 958.805 917.211 960.276 909C961.748 900.789 959.3 889.662 960.276 789C961.253 688.338 960.895 506.16 960.276 406.5C959.658 306.839 960.507 305.407 960.276 298C960.045 290.592 960.501 288.305 960.276 279" stroke="black" stroke-width="14" stroke-linecap="round"/>
<path d="M605.776 273.641C605.793 273.641 606.951 273.64 605.995 273.653C621.503 274.487 638.596 270.324 645.599 270.517C652.634 270.71 653.967 270.758 655.098 271.195C656.23 271.632 657.256 272.362 657.917 273.641C659.351 276.415 661.181 281.423 662.942 294.063C664.223 303.26 665.917 317.822 666.545 339.491C667.174 361.16 666.751 389.09 665.66 402.908C664.588 416.501 662.92 416.444 657.858 416.272L657.604 416.263C652.343 416.088 643.764 415.745 633.329 416.718C610.879 418.812 594.698 420.521 587.968 421.124L587.904 421.13C585.274 421.366 583.677 421.509 536.399 421.696C488.743 421.885 397.439 422.112 350.644 422.497C303.848 422.883 301.63 423.411 301.318 399.722C301.005 376.032 302.553 329.533 303.1 305.677C303.648 281.822 303.208 280.645 303.072 279.392C302.937 278.139 303.1 276.85 356.117 275.877C409.111 274.905 511.804 274.268 563.179 273.95L563.243 273.95C596.027 273.746 604.306 273.677 605.995 273.653C605.922 273.649 605.849 273.645 605.776 273.641Z" fill="white"/>
<path d="M605.776 273.641C605.823 273.641 614.596 273.631 563.243 273.95C511.889 274.268 409.133 274.904 356.117 275.877C303.1 276.85 302.937 278.139 303.072 279.392C303.208 280.645 303.648 281.822 303.1 305.677C302.553 329.533 301.005 376.032 301.318 399.722C301.63 423.411 303.848 422.883 350.644 422.497C397.439 422.112 488.743 421.885 536.399 421.696C584.055 421.508 585.297 421.363 587.968 421.124C594.698 420.521 610.879 418.812 633.329 416.718C643.764 415.745 652.343 416.088 657.604 416.263C662.865 416.438 664.57 416.725 665.66 402.908C666.751 389.09 667.174 361.16 666.545 339.491C665.917 317.822 664.223 303.26 662.942 294.063C661.181 281.423 659.351 276.415 657.917 273.641C657.256 272.362 656.23 271.632 655.098 271.195C653.967 270.758 652.634 270.71 645.599 270.517C638.563 270.323 621.342 274.526 605.776 273.641Z" stroke="black" stroke-width="14" stroke-linecap="round"/>
<path d="M320.206 911.41C320.206 910.7 320.206 909.991 320.279 887.82C320.351 865.649 320.496 822.038 322.446 789.8C325.591 737.801 335.815 707.496 342.599 689.811C354.527 658.715 382.767 628.451 397.393 616.389C404.701 610.361 417.696 606.801 448.046 602.986C505.441 595.77 547.113 600.748 555.683 602.628C570.271 605.829 594.569 623.696 633.082 674.111C644.799 689.448 650.828 711.315 659.314 739.252C667.8 767.189 676.049 802.168 680.742 825.159C687.78 879.007 689.262 903.364 690.006 908.671C690.383 911.285 690.759 913.74 691.708 918.307" stroke="black" stroke-width="14" stroke-linecap="round"/>
<path d="M607.426 767.013C607.495 767.013 605.032 767.013 601.063 767.522C596.705 768.081 597.333 777.187 597.344 785.641C597.351 791.867 604.298 796.149 608.755 799.095C610.542 800.275 613.663 800.274 617.362 799.964C623.451 799.453 627.133 793.938 630.33 789.923C632.364 787.369 632.51 782.35 632.298 777.418C632.068 772.11 625.463 768.942 620.65 766.286C618.453 765.667 615.211 765.416 611.599 765.501C610.083 765.599 609.213 765.812 608.315 766.032" stroke="black" stroke-width="14" stroke-linecap="round"/>
<path d="M127.893 492.778C142.277 481.964 162.407 476.943 170.627 476.87H170.628C176.225 477.019 181.658 477.163 185.606 477.308C200.164 478.753 216.501 482.557 226.825 487.937C234.513 492.968 256.397 505.547 266.222 522.886C272.242 533.511 280.472 543.8 275.765 574.437C270.791 606.811 265.429 628.907 256.466 634.596C239.776 645.189 215.949 659.958 204.751 659.935C182.006 659.888 165.927 662.347 140.266 641.974C109.583 617.613 91.1959 601.028 90.7063 586.499C90.3531 576.018 89.9519 558.926 95.4574 542.162L95.5053 542.016C101.453 523.904 106.359 508.967 127.893 492.778Z" fill="#D9D9D9" stroke="black" stroke-width="14" stroke-linecap="round"/>
<path d="M94.5801 569.4C94.5801 569.529 97.6429 569.214 117.637 569.014C134.567 568.845 165.273 569.954 182.914 570.54C210.354 571.452 219.623 572.695 228.453 573.132C239.794 573.694 249.263 574.787 256.722 575.85C258.651 576.168 260.745 576.506 262.652 576.802C264.558 577.098 266.213 577.342 270.883 576.652" stroke="black" stroke-width="14" stroke-linecap="round"/>
<path d="M177.949 482.422C177.949 482.941 177.949 483.461 177.842 502.674C177.736 521.887 177.523 559.779 177.313 580.162C176.903 602.274 176.697 606.253 176.611 617.187C176.526 625.923 176.355 641.129 175.982 656.625" stroke="black" stroke-width="14" stroke-linecap="round"/>
<path d="M783.415 486.625C816.29 486.197 835.616 484.902 835.487 484.773C840.912 488.172 842.378 489.017 844.628 490.9C849.822 495.619 854.83 500.469 858.766 504.432C866.312 513.247 877.364 524.986 877.924 534.907C879.415 561.345 880.113 599.275 876.101 609.324C871.239 621.502 862.377 642.36 849.33 650.097C838.626 656.446 826.602 663.258 789.37 660.927C775.714 660.072 754.91 656.427 744.252 647.048C729.3 633.888 703.196 612.763 699.105 591.724C696.841 580.079 694.781 564.507 706.378 546.1C715.136 532.199 730.622 512.114 751.179 497.485C761.854 489.889 768.164 486.824 783.415 486.625Z" fill="#E2D8D8" stroke="black" stroke-width="14" stroke-linecap="round"/>
<path d="M697.005 595.113C697.065 595.113 697.126 595.113 719.062 594.641C740.999 594.168 784.81 593.223 810.77 592.312C843.541 591.161 857.204 589.676 867.777 588.534C871.649 587.391 872.487 585.107 873.538 582.969C874.589 580.831 875.826 578.91 877.101 576.93" stroke="black" stroke-width="14" stroke-linecap="round"/>
<path d="M788.276 661.51L790.307 498.397" stroke="black" stroke-width="14" stroke-linecap="round"/>
<path d="M350.387 367.51L350.435 333.91H363.251C364.883 333.91 366.339 334.374 367.619 335.302C368.899 336.198 369.907 337.398 370.643 338.902C371.379 340.374 371.747 341.958 371.747 343.654C371.747 344.838 371.507 346.006 371.027 347.158C370.579 348.278 369.955 349.318 369.155 350.278C368.387 351.206 367.475 351.958 366.419 352.534C365.395 353.078 364.291 353.35 363.107 353.35H354.179V367.51H350.387ZM354.179 349.654H363.011C363.907 349.654 364.723 349.366 365.459 348.79C366.227 348.182 366.835 347.414 367.283 346.486C367.763 345.558 368.003 344.614 368.003 343.654C368.003 342.566 367.779 341.574 367.331 340.678C366.915 339.75 366.339 339.014 365.603 338.47C364.867 337.926 364.051 337.654 363.155 337.654H354.179V349.654ZM396.715 333.91H400.507V367.51H396.715V363.718C395.627 364.934 394.331 365.91 392.827 366.646C391.355 367.382 389.755 367.75 388.027 367.75C385.723 367.75 383.627 367.222 381.739 366.166C379.883 365.078 378.395 363.638 377.275 361.846C376.155 360.022 375.595 357.99 375.595 355.75V333.91H379.387L379.435 355.75C379.435 357.254 379.819 358.63 380.587 359.878C381.355 361.094 382.395 362.07 383.707 362.806C385.019 363.542 386.459 363.91 388.027 363.91C389.691 363.91 391.179 363.558 392.491 362.854C393.803 362.118 394.827 361.126 395.563 359.878C396.331 358.63 396.715 357.254 396.715 355.75V333.91ZM427.645 367.51H423.133L414.493 353.35H409.117V367.51H405.325L405.373 333.91H418.189C419.757 333.91 421.165 334.374 422.413 335.302C423.693 336.198 424.717 337.382 425.485 338.854C426.253 340.326 426.637 341.926 426.637 343.654C426.637 345.126 426.285 346.55 425.581 347.926C424.909 349.302 423.997 350.47 422.845 351.43C421.693 352.39 420.381 352.966 418.909 353.158L427.645 367.51ZM422.797 343.654C422.797 342.694 422.589 341.766 422.173 340.87C421.757 339.942 421.197 339.19 420.493 338.614C419.789 338.006 418.973 337.702 418.045 337.702H409.117V349.462H417.949C418.845 349.462 419.645 349.158 420.349 348.55C421.085 347.942 421.677 347.19 422.125 346.294C422.573 345.398 422.797 344.518 422.797 343.654ZM454.27 367.51H449.758L441.118 353.35H435.742V367.51H431.95L431.998 333.91H444.814C446.382 333.91 447.79 334.374 449.038 335.302C450.318 336.198 451.342 337.382 452.11 338.854C452.878 340.326 453.262 341.926 453.262 343.654C453.262 345.126 452.91 346.55 452.206 347.926C451.534 349.302 450.622 350.47 449.47 351.43C448.318 352.39 447.006 352.966 445.534 353.158L454.27 367.51ZM449.422 343.654C449.422 342.694 449.214 341.766 448.798 340.87C448.382 339.942 447.822 339.19 447.118 338.614C446.414 338.006 445.598 337.702 444.67 337.702H435.742V349.462H444.574C445.47 349.462 446.27 349.158 446.974 348.55C447.71 347.942 448.302 347.19 448.75 346.294C449.198 345.398 449.422 344.518 449.422 343.654ZM500.905 367.51H497.113V352.87H480.601V367.51H476.809V333.91H480.601V349.606H497.113V333.91H500.905V367.51ZM538.084 350.71C538.084 353.142 537.652 355.414 536.788 357.526C535.956 359.606 534.788 361.43 533.284 362.998C531.78 364.566 530.036 365.798 528.052 366.694C526.068 367.558 523.94 367.99 521.668 367.99C519.364 367.99 517.22 367.542 515.236 366.646C513.252 365.75 511.508 364.518 510.004 362.95C508.5 361.35 507.316 359.51 506.452 357.43C505.62 355.35 505.204 353.11 505.204 350.71C505.204 348.342 505.636 346.118 506.5 344.038C507.364 341.926 508.564 340.086 510.1 338.518C511.636 336.918 513.396 335.67 515.38 334.774C517.364 333.878 519.46 333.43 521.668 333.43C523.94 333.43 526.068 333.894 528.052 334.822C530.036 335.718 531.78 336.966 533.284 338.566C534.788 340.166 535.956 342.006 536.788 344.086C537.652 346.166 538.084 348.374 538.084 350.71ZM534.196 350.71C534.196 348.854 533.86 347.11 533.188 345.478C532.548 343.814 531.652 342.358 530.5 341.11C529.38 339.83 528.052 338.838 526.516 338.134C525.012 337.398 523.396 337.03 521.668 337.03C519.908 337.03 518.26 337.398 516.724 338.134C515.22 338.838 513.892 339.83 512.74 341.11C511.62 342.358 510.724 343.814 510.052 345.478C509.412 347.11 509.092 348.854 509.092 350.71C509.092 352.566 509.412 354.326 510.052 355.99C510.724 357.654 511.62 359.126 512.74 360.406C513.892 361.654 515.22 362.646 516.724 363.382C518.26 364.086 519.908 364.438 521.668 364.438C523.428 364.438 525.06 364.086 526.564 363.382C528.068 362.646 529.396 361.654 530.548 360.406C531.7 359.126 532.596 357.67 533.236 356.038C533.876 354.374 534.196 352.598 534.196 350.71ZM563.027 333.91H566.819V367.51H563.027V363.718C561.939 364.934 560.643 365.91 559.139 366.646C557.667 367.382 556.067 367.75 554.339 367.75C552.035 367.75 549.939 367.222 548.051 366.166C546.195 365.078 544.707 363.638 543.587 361.846C542.467 360.022 541.907 357.99 541.907 355.75V333.91H545.699L545.747 355.75C545.747 357.254 546.131 358.63 546.899 359.878C547.667 361.094 548.707 362.07 550.019 362.806C551.331 363.542 552.771 363.91 554.339 363.91C556.003 363.91 557.491 363.558 558.803 362.854C560.115 362.118 561.139 361.126 561.875 359.878C562.643 358.63 563.027 357.254 563.027 355.75V333.91ZM582.341 367.942C580.229 367.942 578.165 367.526 576.149 366.694C574.165 365.862 572.501 364.838 571.157 363.622L574.085 360.934C575.269 361.894 576.597 362.662 578.069 363.238C579.541 363.782 580.933 364.054 582.245 364.054C583.557 364.054 584.757 363.798 585.845 363.286C586.965 362.774 587.861 362.07 588.533 361.174C589.205 360.246 589.557 359.174 589.589 357.958C589.621 356.422 589.077 355.19 587.957 354.262C586.837 353.334 585.109 352.582 582.773 352.006C580.501 351.43 578.517 350.726 576.821 349.894C575.125 349.03 573.829 347.942 572.933 346.63C572.037 345.318 571.669 343.686 571.829 341.734C572.053 339.142 573.125 337.158 575.045 335.782C576.997 334.374 579.557 333.67 582.725 333.67C584.261 333.67 585.877 333.862 587.573 334.246C589.301 334.598 590.917 335.206 592.421 336.07L589.877 339.142C588.757 338.662 587.605 338.278 586.421 337.99C585.237 337.67 584.037 337.494 582.821 337.462C581.637 337.462 580.501 337.622 579.413 337.942C578.357 338.23 577.493 338.726 576.821 339.43C576.149 340.102 575.797 341.014 575.765 342.166C575.765 343.35 576.085 344.31 576.725 345.046C577.365 345.75 578.229 346.326 579.317 346.774C580.405 347.222 581.621 347.638 582.965 348.022C585.237 348.63 587.141 349.302 588.677 350.038C590.245 350.774 591.429 351.75 592.229 352.966C593.029 354.182 593.429 355.846 593.429 357.958C593.429 359.846 592.917 361.542 591.893 363.046C590.901 364.55 589.557 365.75 587.861 366.646C586.197 367.51 584.357 367.942 582.341 367.942ZM615.891 367.51H597.747V333.91H615.891V337.366H601.539V349.414H613.155V352.678H601.539V364.054H615.891V367.51Z" fill="black"/>
</svg>
