<svg width="51" height="78" viewBox="0 0 51 78" fill="none" xmlns="http://www.w3.org/2000/svg">
<path d="M10.3469 39.8242C11.0112 39.021 13.6187 34.3577 18.3436 14.4578C19.5367 9.43298 18.9115 7.79126 17.9693 6.17045C17.3679 5.13586 16.3475 3.77342 15.8244 3.5369C14.9925 3.1607 15.325 5.82797 15.613 7.04018C15.9275 8.36348 17.9762 11.4883 22.4237 17.5556C33.2508 32.3257 38.5012 34.2087 42.7581 35.5257C44.4169 36.0389 46.0221 35.9429 46.1706 36.1286C50.05 40.9816 36.8532 38.8676 30.9324 43.262C26.8727 46.2752 23.2993 52.8569 20.3213 60.6172C17.9316 66.8443 20.3766 69.8551 22.1726 73.0792C22.588 73.825 23.1001 74.203 23.3369 73.8569C27.4629 67.8252 16.5686 55.3457 10.8106 48.7648C9.5288 47.4546 8.88619 46.9541 7.97974 46.256C7.07328 45.558 5.92246 44.6775 3.50098 43.2062" stroke="black" stroke-width="7" stroke-linecap="round"/>
</svg>
