<svg width="167" height="158" viewBox="0 0 167 158" fill="none" xmlns="http://www.w3.org/2000/svg">
<path d="M80.3418 66.0245C80.5512 66.234 87.1313 66.4466 98.1975 65.7675C105.711 65.3065 109.357 59.2107 111.909 54.3004C113.186 51.8441 113.725 49.1266 113.394 46.3269C112.698 40.4272 106.911 35.6569 100.39 32.1201C86.4374 24.5522 69.7167 28.9888 64.9684 31.8906C55.7706 37.5116 58.4465 62.4658 63.1918 77.7504C67.5856 91.9029 91.3314 96.2304 104.571 100.449C117.224 104.481 136.367 90.8727 148.99 80.3977C161.236 70.2351 157.372 43.1578 153.607 26.5238C151.868 18.839 145.248 14.3927 140.207 11.1873C125.003 1.51878 67.7699 3.08161 34.6987 7.31194C18.5372 9.37925 13.6428 28.707 7.62513 45.7689C-0.201936 67.961 6.38532 99.783 11.1118 114.136C15.147 126.391 23.0378 134.713 27.8558 139.235C43.4397 153.862 93.497 154.723 114.524 152.601C125.176 148.021 138.417 139.662 150.533 123.611C153.849 115.221 158.139 100.922 162.559 86.1899" stroke="black" stroke-width="8" stroke-linecap="round"/>
</svg>
