<svg width="159" height="133" viewBox="0 0 159 133" fill="none" xmlns="http://www.w3.org/2000/svg">
<path d="M94.4267 66.4204C94.8793 66.6433 98.6661 66.8696 104.888 65.9897C110.166 65.2433 111.961 58.2598 113.446 52.424C115.302 45.1305 111.763 37.4903 107.51 32.153C103.945 27.6783 96.6183 27.4049 89.1121 28.0882C72.0202 29.6442 62.4146 51.1385 58.1184 62.9343C56.0623 68.5796 56.5936 76.7982 57.6121 85.3932C58.4119 92.1431 65.661 95.2558 71.2852 97.7151C76.3726 99.9397 89.3343 100.659 106.243 100.231C125.381 99.746 136.25 72.5105 139.741 58.0716C142.142 48.1389 137.781 38.2947 132.956 31.3084C124.661 19.2971 105.641 14.3288 61.7442 5.42349C45.4693 2.12183 36.5298 5.00581 31.2678 9.47939C15.881 22.5608 9.52177 50.9729 4.8626 75.9521C2.40718 89.1163 5.73436 99.3522 8.10927 104.999C11.0788 112.06 16.176 117.376 23.2387 121.003C46.0323 132.71 92.3051 129.054 133.745 123.35C140.185 121.456 142.992 119.577 145.595 117.803C148.198 116.028 150.512 114.413 154.135 109.904" stroke="black" stroke-width="8" stroke-linecap="round"/>
</svg>
