<svg width="215" height="214" viewBox="0 0 215 214" fill="none" xmlns="http://www.w3.org/2000/svg">
<path d="M119.985 117.672C120.437 118.125 127.947 118.584 140.312 117.617C145.524 117.209 148.084 113.801 150.148 110.031C154.598 101.9 155.34 87.3454 154.768 72.4595C154.543 66.5906 151.608 64.4242 149.151 63.2722C138.195 58.1363 123.625 71.6113 113.222 82.5568C108.486 87.5394 104.199 92.3961 100.858 97.7008C91.0657 113.251 99.0025 142.75 107.138 154.123C115.042 165.172 130.419 165.816 154.505 166.123C174.739 166.381 193.207 148.695 200.836 137.047C213.006 118.465 210.636 80.492 209.142 62.2722C207.786 45.7329 183.98 30.5915 151.809 12.2256C136.014 3.20909 114.178 3.54747 93.3131 4.41217C63.9514 5.62903 38.6585 33.9475 18.0254 57.8328C6.06983 71.6728 4.68903 87.8893 4.00386 124.123C3.64104 143.311 28.9008 168.846 48.6137 187.589C67.6348 199.238 86.0281 205.99 99.4291 209.098C105.095 210.199 108.456 210.335 118.388 208.304" stroke="black" stroke-width="8" stroke-linecap="round"/>
</svg>
