<svg width="396" height="429" viewBox="0 0 396 429" fill="none" xmlns="http://www.w3.org/2000/svg">
<path d="M113.301 34.7141C102.766 57.5693 98.2075 76.2844 98.1139 79.7222C96.1198 79.9477 91.5952 88.3121 89.1687 89.0335C83.9104 90.9428 76.7143 95.2679 67.8681 104.947C59.8869 115.655 43.3911 135.661 46.6243 164.355C47.7264 174.136 48.7174 184.617 53.297 192.698C60.0672 204.644 68.6639 219.492 116.579 235.338C149.897 246.357 173.883 253.887 191.36 253.925C217.177 253.981 248.554 251.82 275.954 241.752C296.793 234.095 308.104 229.438 313.102 226.173C323.224 219.559 337.045 211.793 339.236 192.415C342.561 163.01 343.159 126.687 339.629 117.063C335.914 106.935 331.031 99.386 323.628 95.0808C312.982 88.8888 313.51 89.9959 306.839 83.3764C304.076 80.6338 283.914 70.803 281.564 65.1555C274.638 48.505 271.035 16.0644 263.646 14.952C260.305 14.4491 255.519 15.2069 252.5 20.8481C243.122 38.3683 247.232 65.6708 235.686 67.621C232.723 68.1215 224.757 69.2367 214.39 67.621C190.751 63.9368 162.263 70.7467 153.63 67.0549C150.121 65.5543 147.249 59.3797 142.832 53.2156C136.394 44.2323 132.722 29.9743 125.075 27.7958C123.223 27.268 121.137 27.7026 119.234 28.5981L119.211 28.6093C117.314 29.5017 115.258 30.4695 113.301 34.7141Z" fill="#E2E2E2" stroke="#E2E2E2" stroke-width="29.6471" stroke-linecap="round"/>
<path d="M148.974 124.127C151.295 124.136 162.952 126.691 169.526 128.147C171.142 128.506 172.609 129.087 173.716 129.81C174.268 130.17 174.205 131.225 174 132.099C173.173 135.614 169.024 137.543 156.531 147.591C153.847 149.798 153 150.527 152.258 151.118C151.516 151.71 150.904 152.142 148.886 152.212" stroke="black" stroke-width="8" stroke-linecap="round"/>
<path d="M213.553 124.404C213.553 124.376 213.456 124.011 213.156 123.364C212.85 122.702 211.954 122.479 211.186 122.303C210.803 122.216 210.412 122.243 210.057 122.389C209.316 122.693 209.015 127.677 209.031 134.967C209.044 140.807 212.523 144.967 213.862 146.491C214.38 147.081 215.216 147.264 215.991 147.328C216.824 147.397 217.544 146.715 218.133 145.933C219.554 144.044 220.597 138.691 220.984 132.234C221.252 127.784 216.733 124.253 215.397 123.635C215.069 123.483 214.675 123.692 214.361 123.879C214.047 124.067 213.791 124.35 213.582 124.72C213.143 125.5 212.817 131.738 212.476 140.64C212.339 144.219 212.636 145.006 212.968 145.771C213.364 146.682 214.08 147.306 214.779 147.577C215.128 147.712 215.543 147.583 215.871 147.377C217.344 146.456 217.612 143.468 217.688 136.588C217.746 131.323 216.247 128.058 215.857 127.373C215.671 127.046 215.292 126.907 214.972 126.976C214.653 127.046 214.35 127.367 214.137 127.751C211.314 132.857 213.063 143.399 213.734 145.087C214.538 147.111 216.428 147.949 217.961 148.315C218.343 148.407 218.736 148.174 219.169 147.691C222.025 144.511 222.451 139.983 222.414 135.177C222.39 132.143 218.143 128.566 215.226 126.113C214.477 125.483 213.511 125.462 212.596 125.557C211.802 125.64 211.242 126.472 210.653 127.132C210.096 127.756 209.452 131.045 208.601 136.248C207.482 143.092 210.78 146.721 212.265 148.322C213.828 150.007 218.134 148.811 219.757 148.034C221.398 147.25 222.553 143.947 223.772 141.086C225.431 137.189 224.68 133.101 222.459 126.875C221.51 124.215 219.418 122.667 217.189 121.221C215.318 120.006 213.108 120.217 211.622 120.786C210.174 121.341 209.854 124.403 209.394 126.469C208.773 129.256 208.398 135.883 208.555 138.858C208.673 141.118 210.143 142.712 210.738 143.231C211.029 143.484 211.477 143.47 211.845 143.371C212.212 143.272 212.531 143.025 212.834 142.712C213.416 142.025 214.69 137.537 216.196 130.613C216.715 127.791 216.736 126.376 216.757 124.918" stroke="black" stroke-width="8" stroke-linecap="round"/>
<path d="M70.7176 369.303C70.7176 369.476 70.7176 371.248 70.0536 375.037C69.3897 377.144 68.0618 379.623 67.3694 383.285C66.677 386.947 66.6603 391.716 66.6431 396.629" stroke="white" stroke-width="8" stroke-linecap="round"/>
<path d="M290.563 303.476C288.597 302.638 282.107 298.241 275.87 290.82C270.216 284.095 263.488 277.717 256.398 274.385C246.155 269.57 234.292 265.595 219.265 265.46C208.895 265.367 203.522 272.355 201.188 274.716C191.315 284.706 212.702 309.592 219.265 323.379C225.171 335.786 238.402 336.631 250.643 342.313C258.983 346.185 256.463 346.559 269.491 349.566C272.842 350.303 273.569 351.699 275.87 352.399C291.493 357.157 299.317 357.836 303.576 358.472" stroke="#E2E2E2" stroke-width="8" stroke-linecap="round"/>
<path d="M310.775 255.064C310.775 256.626 316.275 275.118 325.119 299.842C327.166 305.565 327.675 311.99 328.678 326.631C328.861 372.643 327.985 384.721 327.251 394.094C327.101 396.541 326.956 398.627 326.186 403.081" stroke="#E2E2E2" stroke-width="8" stroke-linecap="round"/>
<path d="M66.5822 397.389C66.8067 397.389 86.4695 404.812 119.432 416.807C132.756 421.656 139.54 422.875 156.88 423.809C174.219 424.742 202.004 425.067 221.913 424.243C253.108 422.951 269.173 418.095 279.533 415.422C300.269 410.624 305.962 408.591 316.156 405.71C318.789 405.165 320.915 405.032 322.459 402.634" stroke="white" stroke-width="8" stroke-linecap="round"/>
<path d="M95.2527 317.253C93.1189 316.375 86.5336 312.257 81.3498 306.506C76.5581 301.19 76.8415 286.175 79.041 272.436C80.1867 265.28 89.1234 259.936 95.4246 255.02C98.5272 252.599 100.35 249.509 100.491 246.378C100.923 236.83 86.6795 227.756 79.686 224.445C68.5745 219.185 61.0088 227.816 54.5706 232.877C43.5297 241.555 41.2961 250.114 38.1727 258.912C29.0863 284.506 34.4447 314.007 38.1584 326.257C41.5051 337.297 46.373 344.597 49.7697 350.844C52.8379 356.488 57.9202 360.996 63.6453 366.836C65.1775 368.107 66.6095 368.979 68.0964 369.81C69.5834 370.64 71.0819 371.402 72.6258 372.187" stroke="#E2E2E2" stroke-width="8" stroke-linecap="round"/>
<path d="M328.201 131.131C328.201 131.297 343.947 131.403 369.79 131.093C379.886 130.764 383.855 130.085 386.55 129.614C389.245 129.144 390.546 128.904 391.887 128.656" stroke="#2E2D2D" stroke-width="8" stroke-linecap="round"/>
<path d="M329.519 153.111C329.429 153.069 329.338 153.027 334.844 155.127C340.351 157.226 351.456 161.468 361.816 166.162C372.177 170.856 381.456 175.872 391.459 181.184" stroke="#2E2D2D" stroke-width="8" stroke-linecap="round"/>
<path d="M328.951 181.187C328.951 181.15 328.951 181.113 329.954 181.548C330.956 181.984 332.961 182.894 340.226 187.073C347.491 191.253 359.955 198.675 373.933 206.612" stroke="#2E2D2D" stroke-width="8" stroke-linecap="round"/>
<path d="M4 144.238H74.9748" stroke="#2E2D2D" stroke-width="8" stroke-linecap="round"/>
<path d="M59.8956 160.764C56.1091 160.604 43.7499 161.076 21.6229 168.254C16.654 170.118 14.2458 171.256 12.5349 172.154C10.824 173.052 9.88336 173.675 7.78935 174.479" stroke="#2E2D2D" stroke-width="8" stroke-linecap="round"/>
<path d="M23.1028 190.04C24.6006 190.04 30.1016 189.63 41.8353 186.436C44.2429 185.684 45.0278 185.33 46.977 184.108C48.9262 182.886 52.0158 180.807 55.6456 178.451" stroke="#2E2D2D" stroke-width="8" stroke-linecap="round"/>
<path d="M187.02 163.105C189.7 163.105 196.134 163.078 197.793 163.253C198.394 163.316 198.359 163.883 198.331 164.23C198.24 165.357 196.398 168.142 194.631 170.829C194.111 171.62 193.509 171.994 193.082 172.216C192.67 172.43 192.197 172.434 191.779 172.359C189.267 171.912 186.611 167.796 185.982 166.736C185.728 165.87 185.605 165.127 185.471 164.605C185.4 164.354 185.323 164.13 185.162 163.743" stroke="black" stroke-width="8" stroke-linecap="round"/>
<path d="M191.514 167.969C191.314 167.733 190.615 167.117 190.225 166.964C189.938 166.851 190.553 167.67 190.967 167.934C191.175 168.047 191.378 168.116 191.594 168.145C191.809 168.174 192.031 168.159 192.295 168.091" stroke="black" stroke-width="8" stroke-linecap="round"/>
<path d="M192.572 174.02C192.442 174.254 191.528 175.581 190.684 176.446C189.975 177.173 186.099 179.662 183.266 181.251C180.742 181.514 177.029 181.512 176.06 181.271C175.325 181.064 174.096 180.685 172.479 180.045" stroke="black" stroke-width="8" stroke-linecap="round"/>
<path d="M190.466 175.564C190.468 175.762 191.075 176.936 192.56 178.435C194.182 180.071 197.553 180.894 200.747 181.035C202.293 181.103 203.859 180.396 205.266 179.826C206.536 179.015 207.237 178.316 207.917 177.621C208.075 177.456 208.226 177.293 208.391 177.054" stroke="black" stroke-width="8" stroke-linecap="round"/>
<path d="M90.3108 314.534C88.8546 306.879 74.0901 271.287 74 251.494C75.9305 252.046 84.1432 248.764 95.169 245.809C125.949 237.116 150.642 231.379 158.457 231.849C162.69 233.232 164.526 235.611 166.149 238.316C169.47 243.85 171.126 253.952 174.677 269.106C177.189 279.824 191.78 310.392 186.858 331.359C186.25 333.947 184.986 335.071 183.533 335.738C180.703 337.035 176.705 340.641 119.949 347.9C104.64 349.858 97.4945 351.514 96.6725 348.41C93.7036 337.198 91.5763 321.185 90.3108 314.534Z" fill="#F1DCE4" stroke="black" stroke-width="3" stroke-linecap="round"/>
<path d="M102.078 274.301C103.172 275.052 106.244 277.311 107.882 278.352C108.521 278.757 108.982 278.509 109.255 278.116C109.528 277.724 109.655 277.09 109.965 273.718C110.274 270.345 110.761 264.252 111.263 257.975" stroke="black" stroke-width="2.74894" stroke-linecap="round"/>
<path d="M118.581 271.815C118.581 271.78 120.158 271.713 124.921 271.262C128.107 270.862 132.856 270.113 135.549 269.624C138.243 269.135 138.737 268.929 139.246 268.717" stroke="black" stroke-width="2.74894" stroke-linecap="round"/>
<path d="M107.484 296.888C107.655 297.37 111.182 302.263 114.274 305.657C114.663 306.083 115.18 306.143 115.498 306.032C115.816 305.922 116.004 305.543 116.101 302.471C116.198 299.399 116.198 293.645 116.397 287.566" stroke="black" stroke-width="2.74894" stroke-linecap="round"/>
<path d="M125.436 296.014C125.856 296.014 128.233 295.995 131.937 295.884C134.344 295.63 138.736 294.399 144.268 292.757C146.297 292.178 146.745 292.115 148.199 291.787" stroke="black" stroke-width="2.74894" stroke-linecap="round"/>
<path d="M113.106 319.43C113.106 319.513 113.126 320.983 113.278 323.63C113.652 325.823 114.059 327.242 114.388 328.048C114.561 328.437 114.744 328.787 115.162 329.498" stroke="black" stroke-width="2.74894" stroke-linecap="round"/>
<path d="M113.62 319.604C114.484 319.581 120.429 318.491 123.634 318.735C126.578 318.958 125.103 324.877 125.676 326.373C125.791 326.673 125.438 327.015 125.009 327.18C122.052 327.708 118.902 328.833 117.375 329.183C116.983 329.238 116.614 329.3 115.684 329.456" stroke="black" stroke-width="2.74894" stroke-linecap="round"/>
<path d="M136.94 319.278C136.911 319.306 137.552 319.288 141.46 318.526C150.537 316.371 156.924 314.853 157.741 314.73C158.174 314.657 158.646 314.563 159.271 314.152" stroke="black" stroke-width="2.74894" stroke-linecap="round"/>
</svg>
