<svg width="233" height="247" viewBox="0 0 233 247" fill="none" xmlns="http://www.w3.org/2000/svg">
<path d="M34.3241 157.119C36.606 115.995 38.6345 97.2853 38.7673 97.2978C41.8989 97.3865 45.2553 96.1334 47.2747 96.0031C55.7785 94.8898 63.8665 93.0729 109.012 90.1079C158.146 89.1175 190.063 86.12 191.649 88.5648C193.139 90.8626 195.573 116.077 194.701 162.97C194.254 187.011 192.612 211.493 167.505 223.04C142.398 234.587 95.2543 233.24 70.5655 232.981C45.8766 232.721 42.7772 227.778 40.97 227.213C37.5137 226.133 31.6676 204.996 34.3241 157.119Z" fill="#FDFDFD" stroke="black" stroke-width="5.08022" stroke-linecap="round"/>
<path d="M81.1847 228.217C81.376 225.908 83.5211 199.779 87.938 182.398C89.291 177.074 95.3268 174.751 100.223 172.951C105.702 170.937 114.142 171.237 122.812 172.816C133.995 174.852 133.662 197.531 133.571 210.829C133.529 213.339 133.704 215.62 133.871 217.987C134.038 220.354 134.191 222.737 134.827 226.439" stroke="black" stroke-width="4.77107" stroke-linecap="round"/>
<path d="M54.2 116.732C92.7312 105.961 117.86 91.8963 121.122 89.007C124.728 91.5089 126.162 92.3696 127.591 94.2011C129.971 98.2469 132.627 102.682 136.124 106.7C145.918 114.761 160.81 142.059 176.411 142.891C191.432 143.692 211.47 143.052 216.455 133.759C223.846 119.983 227.72 99.3644 218.429 76.7605C211.198 59.169 207.291 40.989 175.731 23.4816C161.336 15.4956 136.439 6.40916 119.327 13.1025C92.8081 23.476 46.2344 40.8189 31.1329 58.3758C20.7009 70.504 9.56247 82.2495 13.3062 104.193C14.0276 108.421 15.9852 109.722 18.4556 111.293C23.7966 114.689 36.483 121.684 54.2 116.732Z" fill="black" stroke="black" stroke-width="4.77107" stroke-linecap="round"/>
</svg>
