<svg width="154" height="146" viewBox="0 0 154 146" fill="none" xmlns="http://www.w3.org/2000/svg">
<path d="M60.8656 3.96329C78.5297 3.65709 89.7938 3.58072 90.009 3.58072C92.9233 3.74176 92.6927 3.34369 93.4716 3.57327C95.0347 4.09679 96.8511 4.50235 98.8329 4.77054C105.592 5.54379 117.58 5.99977 122.415 10.4047C125.895 13.5743 134.349 21.2762 141.249 33.8233C146.372 43.1395 149.676 50.7505 150.241 62.9717C150.641 71.6185 150.592 84.9783 149.996 94.0774C149.399 103.176 148.699 108.013 146.887 112.086C141.056 125.189 137.591 131.699 125.427 136.521C119.326 138.94 110.398 141.502 96.3027 142.237C88.1958 142.66 78.2191 142.563 70.8388 142.019C63.4586 141.476 58.7261 140.743 54.2868 139.067C45.4736 135.741 36.3557 131.574 27.7048 123.418C16.2163 112.587 8.25844 104.413 6.40962 100.065C4.66665 95.9657 3.50277 92.7534 3.50005 88.1668C3.49478 79.255 3.86911 68.7866 8.42495 57.9451C11.1664 51.4212 15.1129 42.9852 20.0921 35.9722C29.5142 22.7015 36.774 13.808 42.7627 10.0737C48.4236 6.54378 52.7996 4.10312 60.8656 3.96329Z" fill="black" stroke="black" stroke-width="7" stroke-linecap="round"/>
<path d="M97.9834 37.5C97.9834 37.553 89.8111 45.6052 74.1705 60.0651C61.0855 72.1623 53.2997 76.5313 53.5039 77.8801C53.6178 78.6324 54.8084 79.1538 60.5197 82.0761C66.2311 84.9983 76.697 90.2114 84.4202 94.5103C92.1433 98.8093 96.8064 102.036 100.069 104.212C103.331 106.388 105.052 107.415 108.5 108.5" stroke="white" stroke-width="7" stroke-linecap="round"/>
</svg>
