<svg width="438" height="345" viewBox="0 0 438 345" fill="none" xmlns="http://www.w3.org/2000/svg">
<path d="M107.28 41.0145C92.7607 71.1244 86.4791 95.7801 86.3501 100.309C83.6021 100.606 77.3667 111.626 74.0228 112.576C66.7765 115.091 56.8596 120.789 44.6688 133.541C33.67 147.647 10.9374 174.004 15.393 211.806C16.9118 224.692 18.2774 238.499 24.5885 249.146C33.9184 264.884 45.7654 284.444 111.797 305.321C157.711 319.837 190.767 329.757 214.852 329.807C250.43 329.881 293.669 327.035 331.429 313.771C360.147 303.683 375.734 297.549 382.622 293.246C396.572 284.533 415.618 274.302 418.638 248.773C423.219 210.034 424.043 162.182 419.179 149.503C414.059 136.159 407.33 126.215 397.129 120.543C382.457 112.385 383.185 113.844 373.992 105.123C370.183 101.51 342.398 88.5589 339.161 81.1187C329.616 59.183 324.65 16.445 314.467 14.9796C309.863 14.3169 303.268 15.3154 299.107 22.7472C286.184 45.8286 291.848 81.7976 275.936 84.3668C271.853 85.0261 260.875 86.4954 246.588 84.3668C214.012 79.5132 174.753 88.4846 162.856 83.621C158.02 81.6441 154.062 73.5095 147.975 65.3888C139.104 53.554 134.043 34.7701 123.505 31.9002C120.952 31.2048 118.078 31.7774 115.456 32.9572L115.423 32.9719C112.81 34.1476 109.976 35.4226 107.28 41.0145Z" fill="black" stroke="black" stroke-width="29.6471" stroke-linecap="round"/>
<path d="M137.187 188.737C136.945 184.382 137.274 173.273 138.98 169.318C140.689 165.358 145.858 162.38 150.863 160.19C156.687 157.643 162.929 161.286 169.008 164.873C180.799 171.831 181.771 178.493 182.656 182.278C182.778 183.785 182.847 186.04 182.803 187.577C182.76 189.114 182.603 189.864 182.096 190.637" stroke="white" stroke-width="7.41176" stroke-linecap="round"/>
<path d="M256.178 191.525C256.246 188.288 256.832 180.751 258.821 175.942C261.011 170.648 266.585 165.937 270.6 162.856C272.368 161.5 274.646 161.217 276.519 160.981C282.411 160.24 291.066 165.763 295.927 169.799C298.405 173.039 298.943 176.605 298.672 180.873C298.439 182.997 298.015 185.036 297.291 189.027" stroke="white" stroke-width="7.41176" stroke-linecap="round"/>
<path d="M223.69 209.389C223.387 209.899 221.735 211.803 216.768 214.718C212.918 216.976 209.952 218.957 208.113 219.799C206.563 220.392 201.297 220.638 194.162 220.437C191.576 220.228 191.09 219.801 190.337 219.076" stroke="white" stroke-width="7.41176" stroke-linecap="round"/>
<path d="M223.69 209.389C224.453 210.348 232.919 217.77 240.538 222.975C243.422 224.944 251.169 224.289 256.262 222.908C257.41 221.824 258.386 220.598 259.241 219.33C259.67 218.705 260.092 218.115 260.749 216.941" stroke="white" stroke-width="7.41176" stroke-linecap="round"/>
<path d="M207.616 221.809C207.616 225.454 207.996 236.957 210.12 242.162C211.855 246.415 215.189 248.839 219.824 250.566C223.691 252.007 231.102 253.061 234.808 250.154C236.725 248.651 240.281 243.316 242.113 235.893C242.212 233.653 242.113 227.661 242.113 224.309" stroke="white" stroke-width="7.41176" stroke-linecap="round"/>
</svg>
