<svg width="544" height="508" viewBox="0 0 544 508" fill="none" xmlns="http://www.w3.org/2000/svg">
<path d="M161.765 41.2973C147.198 71.694 140.895 96.5844 140.766 101.157C138.009 101.457 131.753 112.581 128.398 113.54C121.127 116.08 111.177 121.832 98.9461 134.705C87.9108 148.945 65.1027 175.553 69.5731 213.715C71.0969 226.724 72.4671 240.663 78.7992 251.411C88.16 267.299 100.046 287.045 166.297 308.121C212.364 322.776 245.529 332.79 269.694 332.84C305.39 332.915 348.773 330.042 386.658 316.651C415.471 306.467 431.11 300.275 438.021 295.931C452.017 287.135 471.127 276.806 474.156 251.034C478.753 211.926 479.579 163.619 474.699 150.819C469.563 137.348 462.811 127.309 452.576 121.583C437.855 113.348 438.585 114.82 429.362 106.017C425.541 102.369 397.664 89.2944 394.415 81.7834C384.839 59.6388 379.857 16.4938 369.64 15.0144C365.021 14.3455 358.404 15.3534 354.229 22.856C341.263 46.1573 346.945 82.4688 330.981 85.0624C326.884 85.7281 315.87 87.2113 301.536 85.0624C268.852 80.1626 229.462 89.2195 217.525 84.3096C212.674 82.3138 208.702 74.1018 202.595 65.9037C193.695 53.9562 188.617 34.9935 178.044 32.0961C175.483 31.3942 172.599 31.9722 169.968 33.1632L169.935 33.1781C167.313 34.365 164.47 35.6521 161.765 41.2973Z" fill="black" stroke="black" stroke-width="29.7143" stroke-linecap="round"/>
<path d="M291.553 201.914C291.553 201.886 291.456 201.521 291.157 200.874C290.85 200.212 289.955 199.989 289.186 199.813C288.803 199.725 288.412 199.753 288.057 199.899C287.317 200.203 287.015 205.187 287.032 212.477C287.044 218.317 290.524 222.477 291.862 224C292.381 224.591 293.216 224.774 293.991 224.838C294.824 224.907 295.545 224.225 296.133 223.442C297.555 221.554 298.597 216.201 298.985 209.743C299.252 205.294 294.733 201.763 293.397 201.145C293.069 200.993 292.675 201.202 292.361 201.389C292.047 201.576 291.791 201.859 291.583 202.23C291.143 203.01 290.818 209.248 290.476 218.15C290.339 221.729 290.636 222.516 290.968 223.281C291.364 224.192 292.081 224.816 292.78 225.087C293.128 225.222 293.543 225.092 293.871 224.887C295.344 223.966 295.612 220.978 295.688 214.097C295.747 208.832 294.248 205.568 293.858 204.883C293.671 204.556 293.292 204.416 292.973 204.486C292.653 204.556 292.35 204.877 292.137 205.261C289.314 210.366 291.064 220.909 291.734 222.596C292.538 224.621 294.428 225.459 295.961 225.825C296.344 225.916 296.736 225.684 297.17 225.201C300.025 222.021 300.451 217.493 300.414 212.687C300.391 209.652 296.143 206.076 293.226 203.623C292.477 202.993 291.511 202.972 290.596 203.067C289.802 203.15 289.242 203.981 288.653 204.642C288.096 205.266 287.452 208.555 286.601 213.758C285.482 220.602 288.781 224.23 290.266 225.832C291.828 227.517 296.134 226.32 297.757 225.544C299.398 224.759 300.553 221.457 301.772 218.596C303.432 214.699 302.681 210.611 300.46 204.385C299.511 201.725 297.419 200.177 295.19 198.73C293.319 197.516 291.108 197.727 289.623 198.296C288.175 198.851 287.854 201.913 287.394 203.979C286.773 206.766 286.398 213.392 286.555 216.368C286.674 218.627 288.144 220.222 288.739 220.741C289.029 220.994 289.478 220.98 289.845 220.881C290.212 220.782 290.531 220.535 290.834 220.221C291.416 219.535 292.69 215.047 294.197 208.123C294.716 205.301 294.736 203.886 294.757 202.428" stroke="white" stroke-width="8" stroke-linecap="round"/>
<path d="M239.179 202.404C239.179 202.376 239.082 202.011 238.783 201.364C238.476 200.702 237.581 200.479 236.812 200.303C236.429 200.216 236.038 200.243 235.683 200.389C234.943 200.693 234.641 205.677 234.658 212.967C234.67 218.807 238.15 222.967 239.488 224.491C240.007 225.081 240.842 225.264 241.617 225.328C242.45 225.397 243.171 224.715 243.759 223.933C245.18 222.044 246.223 216.691 246.611 210.234C246.878 205.784 242.359 202.253 241.023 201.635C240.695 201.483 240.301 201.692 239.987 201.879C239.673 202.067 239.417 202.35 239.209 202.72C238.769 203.5 238.444 209.738 238.102 218.64C237.965 222.219 238.262 223.006 238.594 223.771C238.99 224.682 239.707 225.306 240.405 225.577C240.754 225.712 241.169 225.583 241.497 225.377C242.97 224.456 243.238 221.468 243.314 214.588C243.373 209.323 241.874 206.058 241.484 205.373C241.297 205.046 240.918 204.907 240.599 204.976C240.279 205.046 239.976 205.367 239.763 205.751C236.94 210.857 238.69 221.399 239.36 223.087C240.164 225.111 242.054 225.949 243.587 226.315C243.97 226.407 244.362 226.174 244.796 225.691C247.651 222.511 248.077 217.983 248.04 213.177C248.017 210.143 243.769 206.566 240.852 204.113C240.103 203.483 239.137 203.462 238.222 203.557C237.428 203.64 236.868 204.472 236.279 205.132C235.722 205.756 235.078 209.045 234.227 214.248C233.108 221.092 236.407 224.721 237.892 226.322C239.454 228.007 243.76 226.811 245.383 226.034C247.024 225.25 248.179 221.947 249.398 219.086C251.058 215.189 250.307 211.101 248.086 204.875C247.137 202.215 245.045 200.667 242.816 199.221C240.945 198.006 238.734 198.217 237.249 198.786C235.801 199.341 235.48 202.403 235.02 204.469C234.399 207.256 234.024 213.883 234.181 216.858C234.3 219.118 235.77 220.712 236.365 221.231C236.655 221.484 237.104 221.47 237.471 221.371C237.838 221.272 238.157 221.025 238.46 220.712C239.042 220.025 240.316 215.537 241.823 208.613C242.342 205.791 242.362 204.376 242.383 202.918" stroke="white" stroke-width="8" stroke-linecap="round"/>
<path d="M265.02 240.615C267.7 240.615 274.134 240.588 275.793 240.762C276.394 240.825 276.359 241.392 276.331 241.74C276.24 242.867 274.397 245.652 272.631 248.339C272.111 249.129 271.509 249.504 271.082 249.725C270.67 249.939 270.196 249.943 269.779 249.869C267.267 249.422 264.611 245.306 263.982 244.246C263.728 243.38 263.605 242.636 263.471 242.115C263.4 241.863 263.323 241.64 263.162 241.253" stroke="white" stroke-width="8" stroke-linecap="round"/>
<path d="M270.572 251.529C270.442 251.764 269.528 253.091 268.685 253.956C267.976 254.683 264.099 257.171 261.267 258.761C258.743 259.023 255.029 259.022 254.06 258.78C253.325 258.573 252.096 258.195 250.479 257.555" stroke="white" stroke-width="8" stroke-linecap="round"/>
<path d="M268.467 253.074C268.468 253.272 269.075 254.446 270.561 255.945C272.183 257.581 275.554 258.404 278.747 258.544C280.293 258.613 281.859 257.905 283.267 257.336C284.537 256.525 285.237 255.826 285.917 255.131C286.076 254.966 286.227 254.802 286.392 254.564" stroke="white" stroke-width="8" stroke-linecap="round"/>
<path d="M4 227.842H74.9748" stroke="#2E2D2D" stroke-width="8" stroke-linecap="round"/>
<path d="M59.8963 244.367C56.1098 244.207 43.7506 244.68 21.6236 251.858C16.6546 253.722 14.2465 254.86 12.5356 255.757C10.8247 256.655 9.88405 257.278 7.79004 258.082" stroke="#2E2D2D" stroke-width="8" stroke-linecap="round"/>
<path d="M23.1035 273.643C24.6014 273.643 30.1024 273.234 41.836 270.039C44.2436 269.288 45.0286 268.934 46.9778 267.712C48.9269 266.489 52.0166 264.41 55.6463 262.055" stroke="#2E2D2D" stroke-width="8" stroke-linecap="round"/>
<path d="M539.975 226.842H469" stroke="#2E2D2D" stroke-width="8" stroke-linecap="round"/>
<path d="M484.078 243.367C487.865 243.207 500.224 243.68 522.351 250.858C527.32 252.722 529.728 253.86 531.439 254.757C533.15 255.655 534.091 256.278 536.185 257.082" stroke="#2E2D2D" stroke-width="8" stroke-linecap="round"/>
<path d="M520.871 272.643C519.373 272.643 513.872 272.234 502.139 269.039C499.731 268.288 498.946 267.934 496.997 266.712C495.048 265.489 491.958 263.41 488.328 261.055" stroke="#2E2D2D" stroke-width="8" stroke-linecap="round"/>
<path d="M405.221 378.859C403.254 378.021 396.764 373.624 390.527 366.203C384.874 359.477 378.145 353.1 371.056 349.768C360.812 344.953 348.949 340.978 333.922 340.843C323.552 340.749 318.179 347.738 315.845 350.099C305.972 360.089 327.359 384.975 333.922 398.762C339.828 411.169 353.059 412.014 365.3 417.696C373.64 421.568 371.12 421.942 384.148 424.949C387.5 425.686 388.226 427.082 390.527 427.782C406.15 432.54 413.974 433.219 418.233 433.855" stroke="black" stroke-width="8" stroke-linecap="round"/>
<path d="M165.513 324.853C163.583 324.016 157.214 319.619 151.092 312.199C145.544 305.475 138.941 299.098 131.983 295.766C121.929 290.952 110.287 286.978 95.5393 286.843C85.362 286.749 80.0883 293.737 77.7982 296.098C68.1085 306.086 85.8128 334.428 96.9884 344.753C106.284 353.342 115.77 358.004 127.784 363.685C135.969 367.556 132.046 367.93 144.832 370.937C148.121 371.674 144.025 370.237 146.284 370.937M146.284 370.937C161.617 375.694 142.104 370.302 146.284 370.937Z" stroke="black" stroke-width="8" stroke-linecap="round"/>
<path d="M404.059 334.084C404.059 335.646 409.558 354.137 418.402 378.862C420.449 384.585 420.959 391.01 421.962 405.651C422.145 451.663 421.269 463.741 420.534 473.114C420.385 475.56 420.24 477.646 419.469 482.1" stroke="black" stroke-width="8" stroke-linecap="round"/>
<path d="M159.866 476.408C160.091 476.408 179.754 483.831 212.717 495.827C226.04 500.675 232.824 501.895 250.164 502.828C267.503 503.761 295.288 504.086 315.197 503.262C346.392 501.97 362.457 497.114 372.817 494.441C393.553 489.644 399.247 487.611 409.44 484.729C412.073 484.185 414.199 484.052 415.743 481.654" stroke="black" stroke-width="8" stroke-linecap="round"/>
<path d="M160.283 372.842C160.25 372.938 156.801 377.802 150.095 389.275C146.283 395.795 143.811 404.289 142.214 408.925C139.961 415.465 139.406 419.626 138.986 423.182C138.82 424.579 138.455 433.911 138.286 447.286C138.184 455.389 140.534 465.054 141.529 469.345C141.768 470.373 142.113 471.377 142.7 472.242C144.068 474.254 148.622 474.869 151.235 475.884C151.883 476.125 152.504 476.358 153.183 476.571C153.861 476.785 154.578 476.974 155.467 476.72" stroke="black" stroke-width="8" stroke-linecap="round"/>
<path d="M62.3108 357.553C60.8546 349.898 46.0901 314.306 46 294.514C47.9305 295.066 56.1432 291.784 67.169 288.828C97.949 280.136 122.642 274.398 130.457 274.869C134.69 276.252 136.526 278.63 138.149 281.336C141.47 286.869 143.126 296.971 146.677 312.126C149.189 322.843 163.78 353.411 158.858 374.378C158.25 376.967 156.986 378.091 155.533 378.757C152.703 380.054 148.705 383.661 91.9488 390.919C76.6405 392.877 69.4945 394.534 68.6725 391.429C65.7036 380.218 63.5763 364.205 62.3108 357.553Z" fill="#F1DCE4" stroke="black" stroke-width="3" stroke-linecap="round"/>
<path d="M74.0786 317.321C75.1726 318.072 78.244 320.331 79.8826 321.371C80.5207 321.776 80.9818 321.528 81.2552 321.136C81.5287 320.743 81.6557 320.11 81.9648 316.737C82.2738 313.364 82.7612 307.272 83.2633 300.994" stroke="black" stroke-width="2.74894" stroke-linecap="round"/>
<path d="M90.5811 314.835C90.5811 314.8 92.1576 314.732 96.9205 314.282C100.107 313.882 104.856 313.133 107.549 312.644C110.242 312.155 110.737 311.949 111.246 311.736" stroke="black" stroke-width="2.74894" stroke-linecap="round"/>
<path d="M79.4839 339.907C79.6548 340.39 83.1821 345.283 86.2744 348.676C86.6624 349.102 87.1797 349.162 87.4978 349.052C87.8159 348.942 88.0042 348.563 88.1012 345.491C88.1982 342.418 88.1982 336.664 88.3972 330.586" stroke="black" stroke-width="2.74894" stroke-linecap="round"/>
<path d="M97.4355 339.033C97.8556 339.033 100.232 339.014 103.937 338.904C106.344 338.65 110.736 337.419 116.268 335.777C118.297 335.198 118.744 335.135 120.199 334.807" stroke="black" stroke-width="2.74894" stroke-linecap="round"/>
<path d="M85.106 362.449C85.106 362.533 85.1259 364.002 85.2775 366.649C85.6517 368.843 86.0587 370.261 86.3882 371.067C86.5607 371.457 86.7437 371.807 87.1619 372.518" stroke="black" stroke-width="2.74894" stroke-linecap="round"/>
<path d="M85.6201 362.624C86.4843 362.6 92.429 361.511 95.634 361.754C98.5782 361.977 97.1029 367.897 97.6757 369.393C97.7907 369.693 97.4383 370.034 97.0089 370.199C94.0518 370.728 90.9025 371.852 89.3756 372.203C88.9829 372.258 88.6139 372.319 87.6845 372.476" stroke="black" stroke-width="2.74894" stroke-linecap="round"/>
<path d="M108.94 362.298C108.911 362.326 109.552 362.307 113.46 361.546C122.538 359.391 128.924 357.872 129.741 357.749C130.174 357.676 130.647 357.583 131.271 357.172" stroke="black" stroke-width="2.74894" stroke-linecap="round"/>
</svg>
