<svg xmlns="http://www.w3.org/2000/svg" xmlns:xlink="http://www.w3.org/1999/xlink" width="1000" zoomAndPan="magnify" viewBox="0 0 750 749.999995" height="1000" preserveAspectRatio="xMidYMid meet" version="1.0"><path fill="#ffffff" d="M 545.332031 180.554688 C 505.039062 154.972656 458.226562 139.535156 410.507812 137.054688 C 361.660156 134.507812 312.492188 146.125 269.164062 168.597656 C 226.429688 190.765625 188.214844 224.300781 163.164062 265.625 C 138.808594 305.792969 125.226562 356.898438 138.585938 403.140625 C 141.484375 413.199219 145.71875 422.8125 151.054688 431.800781 C 121.128906 456.765625 91.203125 481.734375 61.273438 506.6875 C 59.726562 507.96875 59.269531 509.515625 59.476562 510.964844 C 58.515625 511.105469 57.539062 511.242188 56.566406 511.382812 C 49.5 512.457031 52.496094 523.199219 59.53125 522.125 C 95.9375 516.566406 132.886719 515.839844 169.503906 519.644531 C 170.351562 519.726562 171.078125 519.644531 171.71875 519.433594 C 196.042969 558.472656 223.253906 600.371094 265.34375 621.953125 C 315.042969 647.433594 375.1875 634.6875 425.5 617.546875 C 452.542969 608.324219 478.695312 596.582031 504.121094 583.582031 C 527.332031 571.722656 550.28125 559.117188 571.820312 544.402344 C 612.363281 516.71875 647.863281 480.074219 660.820312 431.480469 C 686.972656 333.367188 626.617188 232.171875 545.304688 180.554688 Z M 655.304688 395.378906 C 652.644531 444.6875 627.144531 485.84375 589.890625 516.996094 C 552.398438 548.359375 506.671875 571.722656 462.15625 591.3125 C 437.34375 602.238281 411.664062 611.375 385.25 617.589844 C 358.484375 623.875 329.921875 628.054688 302.601562 622.996094 C 256.09375 614.386719 223.910156 577.964844 198.609375 540.585938 C 192.242188 531.179688 186.179688 521.566406 180.175781 511.925781 C 178.378906 509.027344 175.242188 508.804688 172.859375 510.003906 C 172.011719 509.210938 170.894531 508.652344 169.503906 508.511719 C 138.335938 505.28125 107.070312 505.460938 76 508.847656 C 104.96875 484.6875 133.933594 460.527344 162.898438 436.371094 C 166.171875 433.640625 164.695312 429.78125 161.824219 428.039062 C 137.457031 388.46875 141.539062 339.246094 159.164062 297.769531 C 177.332031 255.007812 210.296875 219.132812 248.738281 193.59375 C 326.632812 141.820312 426.378906 133.460938 510.90625 174.171875 C 594.070312 214.226562 660.445312 299.789062 655.289062 395.378906 Z M 655.304688 395.378906 " fill-opacity="1" fill-rule="nonzero"/><path fill="#ffffff" d="M 342.308594 332.765625 C 333.738281 319 317.132812 319.183594 302.960938 322.09375 C 294.855469 323.753906 285.921875 326.457031 279.597656 331.804688 C 277.453125 332.347656 275.628906 333.964844 275.417969 336.320312 C 273.859375 338.507812 272.632812 341 271.90625 343.898438 C 270.679688 348.804688 275.65625 351.714844 279.304688 350.558594 C 286.507812 374.328125 293.710938 398.097656 300.914062 421.867188 C 300.816406 422.632812 300.871094 423.46875 301.195312 424.375 C 302.378906 427.730469 303.546875 431.101562 304.730469 434.460938 C 307.074219 441.148438 317.578125 438.445312 315.472656 431.492188 C 311.964844 419.914062 308.453125 408.351562 304.957031 396.773438 C 318.734375 390.070312 333.710938 382.378906 341.652344 368.617188 C 347.769531 358.011719 348.925781 343.410156 342.292969 332.753906 Z M 301.695312 386.003906 C 297 370.496094 292.304688 355.003906 287.59375 339.496094 C 292.597656 335.566406 300.121094 334.035156 305.917969 332.835938 C 316.9375 330.566406 330.898438 330.023438 334.742188 343.0625 C 341.152344 364.757812 318.191406 377.839844 301.679688 386.003906 Z M 301.695312 386.003906 " fill-opacity="1" fill-rule="nonzero"/><path fill="#ffffff" d="M 388.246094 363.585938 C 385.890625 356.855469 375.121094 359.753906 377.503906 366.554688 C 381.082031 376.753906 383.6875 387.257812 384.816406 398.027344 C 385.679688 406.289062 387.742188 418.953125 383.171875 426.503906 C 376.890625 436.886719 368.265625 417.421875 366.371094 412.933594 C 362.300781 403.308594 359.402344 393.261719 357.371094 383.007812 C 355.976562 375.972656 345.234375 378.953125 346.628906 385.976562 C 349.511719 400.507812 361.410156 452.265625 386.238281 438.738281 C 396.3125 433.261719 396.839844 419.761719 396.660156 409.730469 C 396.367188 393.988281 393.441406 378.4375 388.242188 363.601562 Z M 388.246094 363.585938 " fill-opacity="1" fill-rule="nonzero"/><path fill="#ffffff" d="M 436.269531 298.019531 C 422.894531 310.238281 415.371094 327.457031 414.296875 345.082031 C 408.585938 334.914062 402.886719 324.726562 397.175781 314.558594 C 393.664062 308.300781 384.035156 313.917969 387.546875 320.1875 C 399.042969 340.667969 410.535156 361.160156 422.015625 381.640625 C 422.574219 382.6875 423.144531 383.71875 423.746094 384.734375 C 427.4375 390.878906 436.882812 385.375 433.371094 379.105469 C 432.882812 378.230469 432.382812 377.351562 431.894531 376.472656 C 419.664062 353.375 424.746094 323.640625 444.15625 305.90625 C 449.464844 301.054688 441.5625 293.199219 436.269531 298.019531 Z M 436.269531 298.019531 " fill-opacity="1" fill-rule="nonzero"/><path fill="#ffffff" d="M 519.710938 307.367188 C 499.925781 317.539062 486.34375 336.878906 481.898438 358.164062 C 475.921875 344.082031 469.152344 330.355469 461.53125 317.050781 C 457.960938 310.824219 448.335938 316.4375 451.902344 322.679688 C 464.816406 345.207031 475.292969 368.894531 483.265625 393.609375 C 485.453125 400.394531 496.109375 397.554688 494.007812 390.644531 C 485.410156 362.304688 499.023438 330.511719 525.3125 316.996094 C 531.695312 313.722656 526.066406 304.09375 519.683594 307.367188 Z M 519.710938 307.367188 " fill-opacity="1" fill-rule="nonzero"/><path fill="#ffffff" d="M 561.703125 403.796875 C 558.304688 358.488281 557.359375 313.023438 558.847656 267.617188 C 559.085938 260.441406 547.9375 260.457031 547.703125 267.617188 C 546.210938 313.039062 547.171875 358.488281 550.558594 403.796875 C 551.089844 410.902344 562.25 410.957031 561.703125 403.796875 Z M 561.703125 403.796875 " fill-opacity="1" fill-rule="nonzero"/><path fill="#ffffff" d="M 559.226562 422.171875 C 559.226562 422.171875 559.15625 422.171875 559.128906 422.171875 C 558.261719 422.019531 557.425781 422.019531 556.648438 422.144531 C 552.089844 422.492188 548.191406 425.167969 546.851562 429.90625 C 545.667969 434.125 546.714844 439.199219 549.722656 442.445312 C 550.015625 442.765625 550.320312 443.042969 550.640625 443.320312 C 553.21875 448.949219 560.144531 452.753906 566.761719 448.867188 C 579.441406 441.441406 572.167969 423.621094 559.226562 422.171875 Z M 559.226562 422.171875 " fill-opacity="1" fill-rule="nonzero"/></svg>