<svg width="1440" height="281" viewBox="0 0 1440 281" fill="none" xmlns="http://www.w3.org/2000/svg">
<path d="M0 277.992C4.28957 274.664 35.9931 187.075 44.7309 173.497C55.5182 156.733 58.3898 144.698 62.2888 127.498C67.7726 103.306 72.7802 81.5806 79.7594 61.9631C86.4713 43.0969 96.8127 23.1826 108.384 12.6083C114.354 7.153 122.457 4.82768 132.299 3.59128C157.88 0.377729 170.899 10.8766 186.188 16.4536C209.635 25.0062 233.635 39.4711 259.726 52.6785C275.487 60.6564 288.217 66.9482 301.235 72.969C315.891 79.7478 339.131 67.1171 368.352 62.3352C386.32 59.395 410.382 53.2423 444.612 47.0893C493.172 38.3606 538.178 32.2125 565.195 29.65C594.152 26.9036 619.207 24.2277 668.88 23.9415C708.632 23.7125 777.916 23.1414 837.851 26.1865C897.786 29.2317 946.271 35.8666 975.033 40.394C1024.89 48.2427 1042.35 53.9902 1061.7 60.4955C1076.7 65.5386 1090.86 71.3644 1104.12 75.0009C1118.29 78.8843 1136.9 69.0882 1158.51 62.6375C1195.98 51.4498 1214.65 46.0769 1227.74 39.3992C1245.14 30.5215 1261.86 24.5533 1285.54 23.9415C1304.35 23.4555 1319.05 57.5513 1329.71 83.6105C1337.32 102.204 1334.41 107.225 1356 163.992C1367.05 193.051 1401.34 216.094 1414.59 233.992C1427.54 251.492 1430.24 249.91 1435.01 259.512C1437.1 264.904 1438.53 271.35 1440 277.992" stroke="white" stroke-width="6" stroke-linecap="round"/>
</svg>
