<svg width="737" height="688" viewBox="0 0 737 688" fill="none" xmlns="http://www.w3.org/2000/svg">
<path d="M219.043 55.9186C199.318 97.0782 190.783 130.782 190.608 136.973C186.875 137.379 178.404 152.442 173.861 153.742C164.016 157.18 150.543 164.969 133.981 182.4C119.038 201.683 88.1544 237.712 94.2076 289.386C96.271 307.001 98.1264 325.876 106.701 340.429C119.376 361.943 135.471 388.681 225.18 417.22C287.558 437.063 332.467 450.623 365.187 450.692C413.523 450.793 472.267 446.902 523.566 428.77C562.582 414.98 583.758 406.595 593.116 400.714C612.068 388.802 637.944 374.817 642.046 339.919C648.27 286.964 649.389 221.552 642.781 204.22C635.826 185.979 626.683 172.385 612.824 164.632C592.891 153.481 593.88 155.475 581.391 143.554C576.217 138.615 538.469 120.911 534.07 110.74C521.103 80.7545 514.357 22.3326 500.523 20.3294C494.267 19.4236 485.308 20.7884 479.655 30.9476C462.098 62.4994 469.792 111.668 448.175 115.18C442.628 116.081 427.714 118.09 408.304 115.18C364.047 108.545 310.71 120.809 294.547 114.161C287.977 111.458 282.6 100.339 274.33 89.2376C262.279 73.0598 255.402 47.3827 241.086 43.4595C237.618 42.509 233.713 43.2916 230.151 44.9044L230.106 44.9245C226.556 46.5316 222.706 48.2746 219.043 55.9186Z" fill="black" stroke="black" stroke-width="40.2355" stroke-linecap="round"/>
<path d="M358.858 325.811C362.486 325.811 371.199 325.775 373.446 326.01C374.259 326.096 374.212 326.863 374.174 327.334C374.05 328.86 371.555 332.631 369.163 336.27C368.46 337.34 367.644 337.847 367.066 338.147C366.508 338.437 365.867 338.442 365.302 338.342C361.901 337.736 358.304 332.163 357.452 330.728C357.108 329.555 356.941 328.548 356.759 327.841C356.663 327.501 356.559 327.199 356.342 326.675" stroke="white" stroke-width="10.8326" stroke-linecap="round"/>
<path d="M366.377 340.59C366.201 340.908 364.963 342.705 363.821 343.876C362.861 344.86 357.612 348.23 353.776 350.382C350.359 350.737 345.331 350.735 344.019 350.408C343.023 350.128 341.359 349.615 339.17 348.749" stroke="white" stroke-width="10.8326" stroke-linecap="round"/>
<path d="M363.525 342.682C363.527 342.95 364.35 344.539 366.361 346.569C368.557 348.784 373.122 349.898 377.446 350.089C379.539 350.181 381.66 349.223 383.566 348.452C385.286 347.354 386.234 346.407 387.155 345.466C387.369 345.243 387.574 345.022 387.797 344.699" stroke="white" stroke-width="10.8326" stroke-linecap="round"/>
<path d="M5.41602 308.516H101.522" stroke="#2E2D2D" stroke-width="10.8326" stroke-linecap="round"/>
<path d="M81.1049 330.891C75.9777 330.675 59.2424 331.314 29.2806 341.034C22.5522 343.558 19.2914 345.099 16.9747 346.314C14.658 347.53 13.3843 348.374 10.5488 349.462" stroke="#2E2D2D" stroke-width="10.8326" stroke-linecap="round"/>
<path d="M31.2832 370.533C33.3114 370.533 40.7602 369.979 56.6486 365.654C59.9086 364.636 60.9715 364.156 63.6109 362.502C66.2502 360.847 70.4338 358.031 75.3488 354.842" stroke="#2E2D2D" stroke-width="10.8326" stroke-linecap="round"/>
<path d="M731.168 307.16H635.062" stroke="#2E2D2D" stroke-width="10.8326" stroke-linecap="round"/>
<path d="M655.48 329.538C660.607 329.321 677.343 329.961 707.304 339.68C714.033 342.205 717.294 343.745 719.61 344.961C721.927 346.176 723.201 347.02 726.036 348.109" stroke="#2E2D2D" stroke-width="10.8326" stroke-linecap="round"/>
<path d="M705.301 369.18C703.273 369.18 695.824 368.626 679.935 364.3C676.675 363.282 675.612 362.803 672.973 361.148C670.334 359.493 666.15 356.678 661.235 353.488" stroke="#2E2D2D" stroke-width="10.8326" stroke-linecap="round"/>
<path d="M548.702 513.003C546.039 511.869 537.251 505.915 528.805 495.866C521.15 486.759 512.039 478.124 502.439 473.612C488.568 467.092 472.506 461.71 452.158 461.527C438.116 461.4 430.84 470.863 427.68 474.061C414.311 487.588 443.271 521.285 452.158 539.953C460.155 556.753 478.071 557.898 494.646 565.592C505.939 570.835 502.527 571.341 520.168 575.413C524.706 576.411 525.689 578.301 528.805 579.25C549.96 585.692 560.554 586.612 566.321 587.472" stroke="black" stroke-width="10.8326" stroke-linecap="round"/>
<path d="M207.191 513.017C209.854 511.882 218.642 505.929 227.088 495.88C234.743 486.773 243.853 478.138 253.453 473.625C267.324 467.106 283.387 461.724 303.735 461.54C317.776 461.414 325.052 470.877 328.212 474.074C341.581 487.602 312.622 521.298 303.735 539.967C295.737 556.767 277.822 557.911 261.246 565.606C249.953 570.848 253.365 571.355 235.725 575.427C231.187 576.425 230.204 578.315 227.088 579.263C205.932 585.705 195.338 586.625 189.571 587.486" stroke="black" stroke-width="10.8326" stroke-linecap="round"/>
<path d="M547.127 452.375C547.127 454.49 554.574 479.529 566.55 513.008C569.321 520.757 570.011 529.457 571.369 549.282C571.617 611.586 570.431 627.941 569.437 640.632C569.234 643.945 569.037 646.77 567.994 652.801" stroke="black" stroke-width="10.8326" stroke-linecap="round"/>
<path d="M216.471 645.094C216.775 645.094 243.4 655.145 288.034 671.388C306.076 677.954 315.262 679.605 338.741 680.869C362.22 682.132 399.842 682.572 426.801 681.456C469.042 679.707 490.795 673.131 504.824 669.512C532.901 663.016 540.611 660.263 554.414 656.361C557.98 655.624 560.858 655.443 562.948 652.196" stroke="black" stroke-width="10.8326" stroke-linecap="round"/>
<path d="M216.653 450.706C216.608 450.886 211.937 460.006 202.857 481.516C197.696 493.74 194.349 509.665 192.186 518.358C189.135 530.619 188.384 538.42 187.814 545.087C187.591 547.706 187.096 565.202 186.868 590.279C186.729 605.472 189.912 623.593 191.259 631.638C191.582 633.566 192.049 635.448 192.844 637.069C194.697 640.841 200.863 641.994 204.402 643.898C205.279 644.35 206.12 644.786 207.038 645.187C207.957 645.588 208.928 645.94 210.132 645.465" stroke="black" stroke-width="10.8326" stroke-linecap="round"/>
<path d="M335.155 265.339C335.204 265.339 332.555 265.339 328.137 265.612C322.007 265.991 320.149 275.502 320.098 276.924C320.048 278.331 323.376 278.59 326.315 278.621C332.92 278.689 339.884 270.026 342.648 268.633C343.312 268.299 343.762 267.729 343.569 267.312C341.783 263.444 333.115 266.891 324.78 269.672C323.05 270.249 322.587 270.775 322.348 271.299C322.11 271.822 322.147 272.432 323.606 272.748C327.859 273.669 331.653 272.797 333.049 272.133C335.778 270.836 337.824 266.931 339.681 263.637C340.343 262.464 339.322 261.83 338.525 261.562C335.453 260.526 325.464 266.999 318.18 272.371C317.299 273.021 317.109 273.75 316.934 274.365C316.76 274.98 316.742 275.613 318.327 276.261C322.904 278.134 329.441 278.254 334.35 278.167C338.362 278.095 341.896 272.512 344.828 267.925C346.753 264.915 346.265 262.608 345.829 261.36C344.938 258.806 334.766 259.875 329.389 260.924C326.752 261.439 325.156 266.003 324.44 269.146C324.117 270.567 325.978 271.524 327.223 272.135C327.85 272.414 328.466 272.628 329.055 272.562C329.644 272.496 330.186 272.144 330.746 271.781" stroke="white" stroke-width="10.8326" stroke-linecap="round"/>
<path d="M392.343 267.931C392.801 267.937 402.04 271.288 409.026 272.767C409.873 272.946 410.366 272.018 410.719 271.419C411.417 270.234 411.442 268.451 411.18 266.669C410.647 263.049 400.787 261.693 394.301 261.102C393.208 261.002 392.572 261.724 392.122 262.251C391.266 263.255 391.201 264.635 391.466 265.874C392.156 269.115 396.918 270.301 407.323 272.852C411.335 273.835 413.63 273.08 414.804 272.314C415.967 271.555 416.299 269.824 416.643 268.229C416.97 266.707 416.341 265.129 415.361 263.714C413.328 260.777 407.201 258.901 402.022 257.387C399.99 256.794 398.196 257.105 396.67 257.788C394.601 258.712 393.706 260.998 393.238 263.145C391.962 269 395.555 273.388 398.666 277.55C400.87 280.499 404.854 281.519 410.136 282.568C414.492 283.433 419.856 279.263 422.741 275.97C424.019 274.512 422.656 272.234 421.808 270.939C419.7 267.723 410.007 264.357 400.64 262.016C397.127 261.139 394.617 261.887 393.379 262.523C392.149 263.156 391.789 264.852 391.51 266.301C390.738 270.322 400.705 274.878 406.325 276.925C407.38 277.166 408.074 277.212 409.048 276.75C410.022 276.289 411.254 275.319 412.524 274.321" stroke="white" stroke-width="10.8326" stroke-linecap="round"/>
<path d="M286.758 312.627C283.962 311.566 276.361 309.071 271.978 309.375C270.169 309.5 270.559 312.581 270.443 314.155C270.309 315.992 270.931 317.711 272.282 319.179C275.818 323.024 280.776 323.664 284.478 323.777C288.819 323.91 290.856 318.195 291.085 316.954C291.805 313.052 282.559 312.284 278.56 312.431C277.715 312.463 277.49 313.621 277.324 314.481C277.159 315.342 277.159 316.242 277.505 316.94C279.06 320.086 283.893 319.144 285.534 318.829C286.33 318.676 286.897 317.993 287.135 317.326C287.372 316.66 287.222 315.893 285.684 315.026C275.988 309.561 262.621 310.909 256.868 312.138C255.093 312.517 255.415 317.069 255.597 321.47C255.718 324.414 257.749 326.35 259.97 328.007C263.743 330.823 271.348 331.51 276.545 331.547C283.417 331.597 289.098 317.855 290.519 314.619C291.133 313.221 291.126 311.263 290.982 309.254C290.915 308.332 290.308 307.691 289.487 307.206C287.655 306.127 284.262 306.133 280.48 306.467C273.592 307.076 269.8 313.494 268.724 316.396C268.458 317.116 268.797 317.897 269.189 318.547C271.046 321.628 276.27 323.167 280.567 323.545C282.476 323.713 283.921 321.54 285.216 319.974C287.908 316.72 288.084 307.55 287.474 302.267C287.263 300.447 284.65 299.833 282.077 299.352C278.33 298.652 275.156 299.493 273.397 300.611C269.542 303.058 266.735 309.915 264.486 315.731C263.793 317.523 264.106 319.418 264.406 321.11C265.114 325.102 271.325 326.696 278.551 328.048C284.761 329.211 289.595 327.973 291.72 327.279C293.981 326.54 295.645 325.146 296.72 323.689C299.57 319.827 297.568 313.33 295.891 310.241C294.22 307.162 290.79 305.713 285.526 304.237C276.198 301.621 271.359 305.536 266.773 308.384C263.304 310.537 260.959 313.775 259.467 316.005C258.202 317.896 258.274 320.495 258.511 323.193C259.03 329.104 266.107 335.279 271.474 339.302C275.183 342.082 280.25 341.354 283.863 340.523C287.758 339.627 290.822 334.153 293.131 328.234C294.702 324.206 293.461 320.719 292.964 319.21C291.902 315.982 284.865 311.359 277.319 307.315C271.325 304.103 261.686 306.599 258.262 308.306C253.586 310.637 251.916 314.873 250.569 318.75C249.448 321.979 251.745 325.72 260.353 336.826C265.447 343.398 271.902 345.642 276.553 347.082C279.304 347.934 281.781 347.043 284.421 345.143C295.566 337.123 298.481 329.752 300.964 323.335C302.017 320.614 302.074 318.051 301.703 315.628C300.958 310.767 295.758 309.361 285.688 305.961C275.163 302.408 263.735 305.004 259.405 308.685C252.692 314.393 254.512 319.242 254.849 321.527C260.305 326.615 270.824 333.092 276.754 335.333C279.782 336.328 282.849 337.032 287.409 336.744" stroke="#F3C6D5" stroke-width="12.7419" stroke-linecap="round"/>
<path d="M435.546 311.713C435.546 312.801 435.916 315.345 438.832 319.972C440.618 322.805 443.742 323.617 446.675 324.096C447.618 324.25 448.83 324.133 449.627 323.864C452.552 322.878 452.506 317.837 452.817 314.651C452.973 313.06 452.462 311.689 451.861 310.61C451.269 309.547 449.872 308.782 448.037 308.177C446.04 307.517 444.207 308.296 443.145 309.198C438.706 312.969 442.773 325.096 444.796 328.513C445.889 330.361 448.025 330.83 449.443 331.095C452.182 331.609 454.876 329.944 456.844 328.473C459.025 326.843 459.479 322.329 459.661 314.94C459.723 312.428 458.692 310.966 457.764 309.952C456.18 308.218 451.298 308.438 446.844 309.811C443.683 310.785 442.183 313.443 441.514 314.522C439.902 317.124 441.568 321.387 443.428 324.832C444.418 326.664 446.011 327.929 447.405 328.976C448.674 329.929 450.383 330.179 452.055 330.064C455.285 329.844 456.279 324.422 456.878 320.504C457.213 318.308 456.746 316.03 456.16 314.008C455.597 312.064 454.095 310.938 452.904 310.017C449.906 307.697 443.315 307.961 439.377 309.32C436.62 310.271 437.538 321.193 438.426 328.182C439.009 332.775 443.613 335.281 446.205 336.578C447.307 337.13 448.783 337.108 450.554 336.882C455.249 336.282 457.829 331.54 460.133 327.925C464.111 321.682 461.48 309.768 460.174 306.606C459.678 305.407 458.435 304.772 456.66 304.366C454.014 303.76 451.665 304.562 450.46 305.337C448.11 306.848 448.214 309.954 448.456 312.099C448.677 314.051 450.943 315.349 452.756 316.464C454.022 317.243 455.94 317.19 457.937 316.777C458.791 316.6 458.979 315.539 459.046 314.789C459.298 311.986 456.631 309.572 454.311 307.89C452.211 306.368 448.071 306.87 444.813 307.477C440.57 308.267 439.268 314.178 438.236 316.824C436.886 320.287 438.006 324.967 439.256 328.732C440.791 333.351 443.377 335.601 445.331 337.307C447.307 339.031 451.048 338.77 453.629 338.371C455.108 338.142 458.185 336.341 461.982 334.101C466.48 331.446 467.265 321.783 467.527 315.576C467.705 311.363 464.384 308.563 462.265 306.818C459.273 304.354 454.207 304.121 444.598 304.096C440.848 304.087 438.979 306.165 436.084 308.485C433.578 310.493 431.915 312.605 431.106 313.938C429.169 317.129 430.818 321.731 435.258 330.948C439.159 339.048 442.372 340.709 445.024 342.294C447.484 343.766 450.632 342.609 453.599 341.482C457.759 339.903 463.781 331.757 467.988 323.818C468.966 321.972 468.668 319.232 468.514 316.108C468.328 312.348 464.071 309.45 461.621 307.756C455.298 303.382 440.925 307.053 438.229 308.489C435.017 310.2 433.639 315.155 433.148 318.617C432.685 321.879 433.35 324.657 433.918 326.211C435.714 331.123 443.33 336.741 446.97 339.18C449.43 340.83 455.062 340.498 459.476 339.39C461.554 338.868 462.41 336.607 463.306 335.745C465.142 333.976 465.838 329.264 465.476 325.204C465.153 321.574 461.982 319.434 459.187 318.295C454.592 316.421 449.439 317.309 442.041 317.426C440.705 317.447 440.545 318.28 440.669 318.815C441.238 319.837 442.788 321.312 444.812 322.964C445.744 323.64 446.484 323.987 447.246 324.346" stroke="#F3C6D5" stroke-width="10.0373" stroke-linecap="round"/>
<path d="M331.166 437.632C342.223 443.457 357.38 455.934 361.414 459.839C363.566 461.408 364.542 462.27 365.538 463.055C367.523 464.528 369.791 466.543 372.348 467.889C372.934 467.752 373.367 467.022 374.497 466.022C379.478 461.613 381.494 458.251 389.691 449.729C395.846 443.331 402.429 436.737 408.478 433.603C411.538 432.017 414.965 431.232 418.955 432.123C423.504 433.139 427.056 434.699 429.633 438.432C434.91 446.076 439.61 453.885 438.58 468.823C438.2 474.321 436.844 482.509 431.406 494.567C425.113 508.52 420.344 518.868 416.694 523.436C410.497 531.191 403.936 543.431 394.677 545.402C392.875 545.786 390.808 544.879 387.679 543.871C380.553 541.575 368.634 537.735 354.74 530.472C347.938 526.917 341.902 523.033 333.74 516.534C325.578 510.035 315.438 501.353 310.185 496.202C303.978 490.115 305.668 488.724 305.378 486.59C304.201 477.918 299.063 459.217 305.378 451.302C310.786 444.523 319.52 435.586 323.3 435.945C325.417 436.147 328.239 436.089 331.166 437.632Z" fill="#F3C6D5" stroke="black" stroke-width="10.8326" stroke-linecap="round"/>
</svg>
