<svg width="261" height="224" viewBox="0 0 261 224" fill="none" xmlns="http://www.w3.org/2000/svg">
<path d="M24.0953 141.096C24.0387 141.096 24.0388 132.877 24.3554 119.945C24.6455 108.103 41.6495 100.813 46.844 98.5913C53.2047 95.8707 62.353 97.9279 68.1346 100.573C83.8812 107.776 89.8248 119.552 91.9269 121.713C93.3932 123.221 94.1822 116.905 98.6431 112.151C107.656 102.545 117.328 96.2146 123.477 92.7482C131.719 88.1018 139.307 86.0779 144.764 85.2312C152.134 84.0877 157.458 84.9494 159.252 85.5896C162.948 86.9088 170.01 100.198 176.723 113.012C177.304 114.12 178.904 111.25 181.189 109.524C185.521 106.251 196.175 102.203 208.495 97.6769C220.053 93.4312 228.101 94.0522 234.457 94.9897C240.047 95.8142 243.953 101.626 248.223 108.847C250.038 111.916 251.51 117.288 253.082 123.24C254.653 129.191 255.847 135.777 256.475 142.653C257.738 156.452 257.033 164.51 255.991 168.021C251.311 183.789 244.151 191.065 241.115 192.892C240.199 193.444 238.894 193.614 230.944 194.296C222.994 194.978 208.356 195.999 199.297 196.409C187.215 196.956 181.345 195.7 175.409 193.964C163.337 190.434 160.252 186.876 158.286 185.59C154.988 183.434 154.112 192.95 149.788 196.883C144.319 201.857 136.528 205.293 121.214 209.62C109.331 212.977 88.4963 216.328 72.7722 218.418C57.048 220.508 46.9111 220.631 40.6318 220.452C28.8562 220.117 22.9699 215.652 17.7428 211.748C9.62595 205.686 6.43627 196.464 3.76996 185.438C1.70372 176.893 4.70765 170.294 8.17723 162.07C9.969 157.824 13.0787 154.898 17.6889 150.393C19.6926 148.435 21.7068 147.612 22.943 146.83C23.3905 146.329 23.4726 145.614 23.5149 144.663C23.5573 143.711 23.5573 142.544 23.5573 141.342" stroke="black" stroke-width="6.19185" stroke-linecap="round"/>
<path d="M101.484 146.523C101.484 146.551 101.484 146.578 101.484 147.257C101.484 147.936 101.484 149.265 101.712 150.502C101.939 151.739 102.394 152.843 103.16 155.057" stroke="black" stroke-width="6.19185" stroke-linecap="round"/>
<path d="M117.02 142C117.075 142 117.166 143.075 117.392 145.266C117.555 146.383 117.818 147.508 118.131 148.503C118.444 149.497 118.8 150.327 119.959 152.683" stroke="black" stroke-width="6.19185" stroke-linecap="round"/>
<path d="M100.483 169.017C101.106 169.995 103.814 172.871 106.866 174.887C108.783 176.154 112.347 176.444 116.043 176.38C119.605 176.32 121.553 173.34 123.675 171.093C124.41 169.794 124.973 168.443 125.455 167.054C125.676 166.33 125.85 165.568 126.03 163.145" stroke="black" stroke-width="6.19185" stroke-linecap="round"/>
<path d="M120.84 88.2041C120.84 86.9896 121.96 77.7988 124.691 68.0088C127.363 58.4284 137.638 50.8195 148.639 45.6087C161.595 39.4725 172.421 44.2057 175.591 45.9306C181.56 49.1786 187.469 55.7447 196.321 68.1735C199.753 74.5448 201.627 79.9512 202.288 86.774C202.408 89.4115 202.471 93.0145 202.535 96.6357" stroke="black" stroke-width="6.19185" stroke-linecap="round"/>
<path d="M112.14 50.9348C112.14 50.9622 112.14 50.9896 110.624 48.7477C109.107 46.5058 106.074 41.9939 104.328 39.3767C102.583 36.7595 102.217 36.1739 101.016 33.7852" stroke="black" stroke-width="6.19185" stroke-linecap="round"/>
<path d="M162.104 17.9132C162.104 17.9724 162.104 18.0316 162.104 15.7054C162.104 13.3792 162.104 8.66586 162.275 3.09766" stroke="black" stroke-width="6.19185" stroke-linecap="round"/>
<path d="M206.299 38.5745C206.271 38.5745 206.242 38.5745 207.232 38.3369C208.222 38.0993 210.231 37.6241 214.489 36.0305C218.747 34.4368 225.195 31.7392 232.322 28.7617" stroke="black" stroke-width="6.19185" stroke-linecap="round"/>
<path d="M227.804 76.25H241.549" stroke="black" stroke-width="6.19185" stroke-linecap="round"/>
</svg>
