<svg width="534" height="230" viewBox="0 0 534 230" fill="none" xmlns="http://www.w3.org/2000/svg">
<path d="M69.4091 37.0091C49.3333 45.3384 26.859 68.1752 24.2465 70.1339C20.457 73.0355 16.7879 76.5704 13.3774 80.5576C8.34204 93.4361 3.51871 116.042 10.4686 126.728C19.5512 140.692 38.9291 149.411 39.5789 159.684C40.0627 167.332 35.2895 183.867 47.5271 194.441C57.1972 202.796 72.3248 215.081 103.837 217.823C146.455 221.531 179.049 224.483 189.885 220.928C215.431 212.547 259.499 163.086 287.554 169.819C293.767 171.31 310.731 181.303 365.292 173.435C405.572 167.626 447.808 163.034 471.774 145.317C501.149 123.601 524.216 100.917 525.377 87.363C527.18 66.317 530.809 19.0061 508.032 13.5107C497.302 10.9221 477.355 4.05434 449.343 15.9177C418.812 28.8477 384.267 62.13 377.008 54.901C369.154 47.0784 357.121 30.4556 340.152 20.8941C322.803 11.1188 291.669 2.53231 269.427 9.58092C254.043 14.4559 221.254 27.8112 189.409 49.4418C175.564 58.8465 173.696 67.9835 167.78 69.8749C165.465 70.6147 162.851 67.8047 154.662 62.8096C117.778 40.312 86.9794 29.7193 69.4091 37.0091Z" fill="#8DC7E4"/>
<path d="M24.2465 70.1339C26.859 68.1752 49.3333 45.3384 69.4091 37.0091C86.9794 29.7193 117.778 40.312 154.662 62.8096C162.851 67.8047 165.465 70.6147 167.78 69.8749C173.696 67.9835 175.564 58.8465 189.409 49.4418C221.254 27.8112 254.043 14.4559 269.427 9.58092C291.669 2.53231 322.803 11.1188 340.152 20.8941C357.121 30.4556 369.154 47.0784 377.008 54.901C384.267 62.13 418.812 28.8477 449.343 15.9177C477.355 4.05434 497.302 10.9221 508.032 13.5106C530.809 19.0061 527.18 66.317 525.377 87.363C524.216 100.917 501.149 123.601 471.774 145.317C447.808 163.034 405.572 167.626 365.292 173.435C310.731 181.303 293.767 171.31 287.554 169.819C259.499 163.086 215.431 212.547 189.885 220.928C179.049 224.483 146.455 221.531 103.837 217.823C72.3248 215.081 57.1972 202.796 47.5271 194.441C35.2895 183.867 40.0627 167.332 39.5789 159.684C38.9291 149.411 19.5512 140.692 10.4686 126.728C3.51871 116.042 8.34204 93.4361 13.3774 80.5576C16.7879 76.5704 20.457 73.0355 24.2465 70.1339ZM24.2465 70.1339C26.2315 68.7629 28.3424 67.598 31.3039 65.1233" stroke="black" stroke-width="14" stroke-linecap="round"/>
</svg>
