<svg width="173" height="155" viewBox="0 0 173 155" fill="none" xmlns="http://www.w3.org/2000/svg">
<path d="M47.6539 57.2465C47.6913 57.2839 48.6004 57.3502 52.0072 57.6912C58.6601 58.3572 67.4004 59.0542 75.1378 58.7892C80.1877 58.6162 83.2675 57.0388 85.4905 55.9304C89.9596 53.702 93.083 46.5746 94.7938 40.199C95.8141 36.397 94.4785 33.6796 93.1465 31.2046C91.7297 28.5721 86.7912 25.6299 80.7925 22.7848C76.4441 20.7225 70.6931 20.9164 66.4448 20.8829C64.3827 20.8667 60.9791 22.376 55.3458 25.2714C49.9872 28.0256 43.895 33.9044 37.8698 39.7423C35.3311 42.202 34.8283 43.5233 34.379 45.5517C33.7516 48.3843 34.39 51.3343 34.9471 53.282C36.8518 55.1423 39.2751 56.3561 40.7315 57.0192C41.4012 57.367 41.9299 57.7378 43.3844 58.1801" stroke="black" stroke-width="6" stroke-linecap="round"/>
<path d="M103.778 15.2898C103.778 15.3272 103.25 15.3253 97.9845 13.5769C93.1988 11.9879 84.3159 8.41687 78.1798 6.37626C72.0437 4.33565 68.9732 3.79125 64.4039 3.43725C59.8346 3.08325 53.8594 2.93614 49.4562 3.02555C42.3917 3.169 35.5472 5.19948 28.8355 7.57787C25.2602 8.84485 22.6915 10.7332 19.1124 13.6409C14.8742 17.0839 11.9988 20.8409 9.71931 24.0208C6.74854 28.165 4.91499 32.6615 3.72746 36.8701C3.05204 39.2638 2.77204 42.3182 3.21611 55.1836C3.66018 68.049 4.97566 90.6679 6.29872 104.942C7.62178 119.215 8.91254 124.459 9.84486 127.77C12.1402 135.922 17.0209 140.892 20.3644 143.398C23.2311 145.547 28.5638 147.278 35.6603 149.189C39.5013 150.223 44.0164 150.615 49.8196 150.925C55.6228 151.235 62.6252 151.252 67.9098 150.968C73.1943 150.684 76.5487 150.098 82.8906 148.246C89.2325 146.393 98.4602 143.291 104.917 140.777C119.203 135.215 121.149 131.909 123.526 128.24C128.408 120.702 127.225 117.266 127.54 111.345C127.817 106.128 127.952 96.403 127.901 90.1811C127.804 78.4473 126.107 76.1485 124.959 73.6959C124.384 72.4693 123.882 71.2536 125.765 70.8913C131.839 69.7233 140.369 71.5722 146.878 71.4022C152.427 71.2573 157.596 66.9644 161.075 64.0623C164.01 61.6148 166.428 54.2343 168.8 42.6438C169.667 38.408 169.115 35.7681 167.879 31.9613C163.275 17.7838 160.252 15.7384 158.021 13.9461C156.58 12.7884 153.087 11.3242 148.696 9.3854C145.58 8.00929 141.252 7.36733 135.509 6.70342C130.1 6.07807 126.707 6.68719 124.093 7.44394C113.67 11.0044 109.241 13.0167 108.237 13.8379C107.815 14.254 107.572 14.6688 107.505 15.0541" stroke="black" stroke-width="6" stroke-linecap="round"/>
<path d="M119.477 24.097C119.854 24.6327 121.422 26.1122 124.062 27.1097C128.591 28.821 132.738 26.7508 134.937 26.9493C135.836 27.0304 136.228 27.5107 136.483 28.0709C137.662 30.6557 137.695 35.5381 139.288 39.4472C140.599 42.6646 143.324 43.7301 144.666 45.2131C145.438 46.0661 145.216 47.4697 145.007 48.5615C144.23 52.6365 135.274 55.881 131.766 56.9867C130.655 57.337 129.343 57.1969 128.005 56.9814C125.129 56.5182 123.951 50.2726 122.173 41.9169C121.391 38.2395 120.11 36.3954 118.532 33.5628C117.495 30.6649 117.215 28.2696 118.188 26.106C118.787 25.4186 119.787 24.5022 121.72 23.0977" stroke="black" stroke-width="6" stroke-linecap="round"/>
<path d="M53.0615 89.247C53.0615 90.1845 53.3286 92.1239 54.0145 92.8699C54.7872 93.7101 56.1945 93.7342 57.3503 93.6403C57.8983 93.5957 58.3221 93.2539 58.619 92.8852C59.2098 92.1514 59.1144 90.9578 58.7377 89.7119C58.3183 88.3251 57.0568 87.6467 56.1346 87.4727C55.6766 87.4831 55.2389 87.6941 54.8766 88.006C54.5142 88.3179 54.2405 88.7242 53.8909 89.3292" stroke="black" stroke-width="6" stroke-linecap="round"/>
<path d="M78.7627 86.8789C78.7844 87.6951 79.2577 90.3017 80.6676 92.1995C80.9961 92.6417 81.4664 92.8576 81.9276 93.0165C82.3888 93.1754 82.9018 93.2037 83.3482 93.0257C83.7946 92.8477 84.1587 92.4624 84.2131 92.0071C84.0009 91.0382 82.6503 89.7065 80.7213 88.4907C79.8685 88.0774 79.2717 88.0774 78.5964 88.0207" stroke="black" stroke-width="6" stroke-linecap="round"/>
</svg>
