<svg width="153" height="177" viewBox="0 0 153 177" fill="none" xmlns="http://www.w3.org/2000/svg">
<path d="M48.656 68.1941C45.269 64.4299 35.1854 51.5541 28.4467 33.8069C24.6884 23.9087 27.4306 16.0013 29.8132 12.5021C34.9974 4.88825 48.6414 4.43412 60.272 4.00609C64.1565 3.86313 66.5324 6.26486 68.5254 8.36776C73.3965 13.5076 76.2982 25.8966 79.0881 43.0118C79.4581 45.2818 81.4275 43.7351 82.4861 41.9984C87.183 34.2927 97.33 24.2456 106.256 19.596C118.493 13.2217 134.398 19.3524 136.354 21.3205C138.241 23.2176 138.272 29.9222 137.566 38.8794C135.807 61.1783 107.06 72.994 109.854 71.196C115.494 67.5654 122.258 66.7772 129.16 67.9333C135.158 68.938 139.37 76.9794 144.109 84.5519C153.006 98.7691 147.751 115.029 143.4 122.79C140.41 128.123 130.975 131.889 121.869 132.996C114.606 133.878 110.326 127.443 104.75 121.948C95.7616 113.092 94.96 105.796 93.7038 103.148C89.2488 93.7571 82.3145 131.241 74.8965 141.864C72.2053 145.718 69.1653 147.864 66.3535 149.565C63.1488 151.503 56.3881 151.679 48.6373 151.367C43.7293 151.169 40.7839 148.222 38.2226 144.712C31.4406 135.417 31.4535 117.794 33.6926 107.854C34.3723 104.836 37.742 102.653 40.3944 101.115C41.2722 100.606 41.7388 102.375 41.2463 103.63C40.1509 106.422 36.2625 107.692 31.6343 108.473C25.074 109.58 19.0805 108.147 15.1513 106.389C7.14156 102.804 6.19875 95.2848 4.30386 85.9332C3.17297 80.352 5.3946 75.8576 8.05313 73.2064C12.955 68.3179 19.6954 66.7409 37.5646 66.3854C41.6702 66.67 43.6849 67.3223 45.189 68.1658C46.6931 69.0092 47.6255 70.024 48.676 71.384" stroke="black" stroke-width="8" stroke-linecap="round"/>
<path d="M77.1991 71.1973C76.8334 71.1973 74.474 71.2209 70.9448 71.5286C67.4294 71.835 66.8837 77.1465 66.3953 80.9277C65.9294 84.5347 66.6205 87.5662 67.2122 89.0254C67.7917 90.4543 69.1326 91.3266 70.3962 91.978C71.635 92.6167 75.0732 92.7468 79.4747 92.7826C81.9608 92.8029 83.5374 91.1559 85.1009 89.3647C88.0748 85.9578 87.6166 82.2867 87.407 78.1026C87.3209 76.3817 85.9385 75.4075 84.982 74.5828C84.0477 73.7772 82.7858 73.3018 81.0117 72.9403C78.4156 72.4112 75.0429 74.1289 72.1492 76.4889C70.4139 77.9042 69.6963 79.3873 69.3717 81.1534C69.2049 82.0608 69.5123 83.0472 69.9064 83.7926C70.6453 85.1902 72.5157 85.8248 75.105 86.2601C78.7539 86.8736 81.4761 85.9281 82.398 84.9583C82.874 84.4576 83.1882 83.784 83.1999 83.1391C83.2238 81.8158 81.4206 80.6112 79.2966 79.6379C77.4283 78.7818 75.5142 79.1751 74.0833 79.7411C73.4323 79.9987 73.0922 80.5306 72.8581 81.1108C72.624 81.691 72.5467 82.3889 72.8876 83.0577C73.6572 84.5678 75.61 85.1129 77.1813 85.3105C78.519 85.4787 79.7973 84.8672 80.9603 83.7929C81.5251 83.2713 81.8691 82.6276 81.8435 81.7866C81.7838 79.826 80.4445 78.3479 79.4693 77.5692C78.9561 77.2316 78.4057 77.0108 77.8452 76.9045C77.2848 76.7983 76.731 76.8134 74.9989 77.6907" stroke="black" stroke-width="8" stroke-linecap="round"/>
<path d="M93.0259 107.852C93.0259 108.085 93.0259 108.318 93.0259 113.573C93.0259 118.828 93.0259 129.097 93.6841 137.206C94.8077 151.047 97.592 158.303 98.7783 161.15C101.096 165.36 102.625 168.01 104.416 170.512C104.887 171.23 105.32 171.992 105.767 172.778" stroke="black" stroke-width="8" stroke-linecap="round"/>
</svg>
