<svg width="97" height="111" viewBox="0 0 97 111" fill="none" xmlns="http://www.w3.org/2000/svg">
<path d="M47.3236 61.1774C48.2259 58.4221 47.9442 48.3766 44.4462 31.8577C41.0262 15.707 34.0925 8.82428 27.3757 4.43669C24.3332 2.44928 18.5473 7.54558 12.225 13.1783C0.839029 23.3225 3.78448 47.2338 6.37553 66.0415C8.29408 79.9678 20.8379 96.2245 29.1464 104.959C34.3235 110.401 47.0749 100.452 57.0117 96.2675C65.7324 92.5951 81.1639 69.7246 90.5896 53.418C93.0998 49.0755 92.1779 44.261 91.6721 40.5104C91.1204 36.42 87.7128 32.9751 83.7791 30.9968C71.3824 37.2782 55.0927 51.9549 50.1149 58.1617C47.9887 60.8295 46.6744 62.519 45.333 64.571" stroke="black" stroke-width="8" stroke-linecap="round"/>
</svg>
