<svg width="271" height="198" viewBox="0 0 271 198" fill="none" xmlns="http://www.w3.org/2000/svg">
<path d="M29.4743 114.031C29.056 115.749 12.662 147.541 3.08089 167.846C2.52285 169.028 4.98878 169.254 6.48009 168.842C12.8725 167.076 19.2499 163.006 39.0526 162.571C48.2229 162.369 53.3827 165.885 57.1785 166.831C68.0512 169.54 78.3018 184.231 113.779 191.154C145.319 197.309 173.048 192.391 190.022 188.182C206.814 184.018 221.961 173.058 235.204 163.916C252.501 151.976 260.093 133.191 263.974 121.644C267.366 111.554 267.386 88.4509 267.305 62.3481C267.247 43.5976 258.434 30.3754 250.994 21.0534C245.63 14.3319 237.637 12.8169 210.135 6.53845C179.941 -0.354483 153.88 4.42549 140.165 7.44648C111.199 13.8271 95.4272 27.1936 79.8469 40.8855C45.6407 70.9457 43.927 86.3444 42.6983 92.9245C41.5709 96.1289 39.0397 101.96 35.7414 109.178C34.2489 112.2 33.1246 113.918 29.5176 119.343" stroke="black" stroke-width="6" stroke-linecap="round"/>
<path d="M143.366 99.691C140.78 96.2281 131.671 86.4456 123.359 81.549C119.883 79.5016 115.798 80.0712 112.443 80.3761C110.788 80.5266 109.322 81.3401 108.338 82.4517C104.031 87.3199 105.778 98.5011 110.136 108.274C120.861 132.327 138.932 132.689 146.363 136.968C149.9 139.005 153.359 139.948 156.983 139.02C165.361 136.876 167.183 126.73 171.723 117.054C179.631 100.198 179.473 82.6539 177.481 71.0945C176.816 67.2386 171.824 66.0794 167.827 65.2662C162.34 64.15 157.377 66.1366 154.277 68.8025C148.325 77.2199 144.493 86.0195 143.375 91.8354C142.949 95.2026 142.811 99.4143 142.668 103.754" stroke="black" stroke-width="6" stroke-linecap="round"/>
</svg>
