<svg width="201" height="200" viewBox="0 0 201 200" fill="none" xmlns="http://www.w3.org/2000/svg">
<path d="M47.9741 88.7462C51.639 101.117 59.1913 124.5 61.557 127.325C63.5204 129.67 72.669 127.411 83.4472 123.525C87.2091 122.168 86.8195 120.445 86.1673 118.069C82.5452 104.872 75.9444 88.6366 74.1602 75.3333C72.6563 64.1192 101.036 63.8948 105.772 63.7102C109.158 63.5782 115.242 82.6186 122.97 108.952C126.897 122.331 129.579 136.087 132.664 156.691C133.862 164.687 133.083 168.837 132.506 171.326C131.904 173.92 125.745 175.038 119.319 177.129C116.406 178.077 114.329 179.168 112.042 175.461C105.206 164.375 104.291 152.174 100.883 149.241C86.7633 137.087 69.9289 154.329 66.7011 155.511C63.9622 156.514 66.0526 167.908 70.051 183.741C71.4584 189.315 69.9023 190.252 65.3184 190.613C52.7719 191.601 43.5632 189.305 41.9477 186.083C40.0127 182.225 33.8199 157.464 23.4604 123.274C19.292 109.517 17.4982 105.686 16.4687 101.085C15.9729 98.8688 16.4283 96.7411 18.6436 94.9786C30.7492 89.6986 37.4221 87.039 43.7344 85.7617C46.1784 85.6591 47.081 86.6641 48.011 87.6995" stroke="#1E1E1E" stroke-width="6.13365" stroke-linecap="round"/>
<path d="M11.8165 79.3098C10.2485 74.0174 7.69649 59.677 9.11273 53.4706C9.66176 51.0645 11.1793 50.5647 12.3683 50.5935C17.9494 50.7287 23.7634 56.15 28.8263 59.1906C33.4417 61.9625 38.8689 56.7518 43.9078 53.5018C45.1562 52.6965 46.3917 52.1129 47.2285 51.1214C50.6828 47.0283 48.8191 40.3981 51.331 32.3677C51.9145 30.502 53.2908 29.7138 54.2595 29.9652C60.4686 31.5761 63.9597 40.0532 68.7228 44.7213C69.8158 45.9089 70.7528 47.0057 71.6678 48.1119C72.5829 49.2181 73.4476 50.3005 72.8511 49.4703" stroke="#1E1E1E" stroke-width="6.13365" stroke-linecap="round"/>
<path d="M84.8479 56.1369C84.7894 55.9395 83.7757 52.5179 82.5215 46.7895C80.9719 39.7119 90.1696 33.2312 96.5271 28.9307C98.2503 27.765 100.757 27.3108 102.575 27.3413C104.392 27.3717 105.621 28.214 106.542 29.2936C109.343 35.3956 110.137 43.0903 108.988 48.0259C108.489 50.1401 108.159 51.4619 107.641 56.5209" stroke="#1E1E1E" stroke-width="6.13365" stroke-linecap="round"/>
<path d="M39.7363 70.8786C39.7406 70.8929 39.7448 70.9071 39.7529 71.0002C39.7611 71.0933 39.7731 71.2647 40.1609 71.4485" stroke="#1E1E1E" stroke-width="6.13365" stroke-linecap="round"/>
<path d="M51.1767 64.7689L51.1501 64.7545" stroke="#1E1E1E" stroke-width="6.13365" stroke-linecap="round"/>
<path d="M48.439 73.3294C48.4326 73.3313 48.4262 73.3332 48.5165 73.2677C48.6068 73.2023 48.794 73.0694 49.0998 72.8127C49.4056 72.5561 49.8242 72.1799 50.6181 71.6112" stroke="#1E1E1E" stroke-width="6.13365" stroke-linecap="round"/>
<path d="M148.615 44.3289C149.107 44.8945 151.304 46.4476 154.281 46.7139C156.567 46.9184 158.328 45.3642 159.221 44.3219C160.174 43.2108 160.006 41.1172 159.802 38.9516C159.702 37.885 159.348 36.9164 158.053 35.8997C154.802 33.3503 151.509 32.5729 150.305 32.1962C149.105 31.8212 147.674 32.0943 146.39 32.6605C145.573 33.5772 145.431 36.1004 145.818 39.607C146.054 41.1515 146.371 42.219 147.123 44.0787" stroke="#1E1E1E" stroke-width="6.13365" stroke-linecap="round"/>
<path d="M158.434 22.9153C158.44 22.9371 158.447 22.9589 158.377 22.629C158.307 22.299 158.161 21.6167 158.107 20.9732C158.053 20.3297 158.095 19.7458 158.7 17.6604" stroke="#1E1E1E" stroke-width="6.13365" stroke-linecap="round"/>
<path d="M141.966 19.7271L143.246 24.0496" stroke="#1E1E1E" stroke-width="6.13365" stroke-linecap="round"/>
<path d="M135.429 40.4964C135.458 40.5123 135.487 40.5281 135.24 40.3801C134.993 40.232 134.468 39.9196 133.07 39.1568" stroke="#1E1E1E" stroke-width="6.13365" stroke-linecap="round"/>
<path d="M169.329 70.8308C162.933 72.7549 149.649 77.0449 148.711 78.0453C148.264 78.5218 148.183 79.1812 148.631 84.2916C149.079 89.402 150.136 99.0063 151.611 107.416C153.087 115.826 154.948 122.751 157.002 128.686C162.728 145.233 167.246 149.561 170.384 152.469C174.04 155.858 185.319 150.738 193.171 148.479C196.024 147.658 196.551 147.398 193.629 135.679C190.707 123.959 184.313 100.763 180.867 88.542C176.456 74.6734 175.425 72.8929 174.731 71.6569C174.361 71.0918 173.955 70.6527 172.622 70.229" stroke="#1E1E1E" stroke-width="6.13365" stroke-linecap="round"/>
</svg>
