<svg width="168" height="157" viewBox="0 0 168 157" fill="none" xmlns="http://www.w3.org/2000/svg">
<path d="M10.7808 80.53C11.0993 75.0572 13.9247 55.8979 16.0775 49.1368C17.0678 46.0264 21.7848 42.9536 25.3847 41.5676C29.2997 40.0603 40.3988 57.8744 47.6959 65.4451C49.9345 67.7676 60.3677 64.7128 81.4222 61.2664C87.4274 60.2833 91.827 61.2225 95.8409 61.8C97.4209 62.0273 98.1314 61.5138 98.8755 60.0373C105.585 46.7238 113.055 29.8018 115.78 26.7802C116.755 25.6998 117.599 26.2905 118.103 27.289C122.052 35.1115 128.712 49.2329 132.322 53.6515C135.278 57.27 144.453 55.4313 149.161 57.335C153.403 59.0504 159.115 73.7798 163.599 88.7402C165.775 96.0026 163.814 101.6 163.107 103.783C159.341 115.395 142.839 129.525 138.829 132.508C137.682 133.361 135.929 134.092 127.655 136.845C119.38 139.598 104.547 144.217 92.5127 147.335C80.4784 150.454 71.6928 151.932 62.0405 152.737C42.1844 154.391 30.0172 153.418 26.5173 152.514C16.4879 149.921 9.37288 143.496 6.11192 139.208C3.8683 136.257 4.13148 132.463 3.51753 126.291C1.88966 109.925 4.45122 106.081 6.37825 101.378C8.67389 95.3429 10.6766 90.0285 11.5846 87.4549C11.9425 86.3326 12.0914 85.5833 12.2448 84.2705" stroke="black" stroke-width="6" stroke-linecap="round"/>
<path d="M75.5595 61.03C75.5595 60.9581 75.5595 60.8861 75.5595 56.7845C75.5595 52.6829 75.5595 44.5539 75.4789 36.0859" stroke="black" stroke-width="6" stroke-linecap="round"/>
<path d="M69.8657 30.3754C71.9393 32.4298 74.7266 34.5511 76.7391 35.1679C77.6989 35.4621 78.6897 34.9242 79.5429 34.2757C81.4336 32.8388 82.7665 29.6261 83.4114 26.7825C83.5485 26.1778 83.4519 25.5335 83.4058 25.4469C83.3597 25.3603 83.2674 25.8366 83.3969 26.305C83.9355 28.2533 86.3084 28.8119 90.2702 29.8874C91.4839 30.2169 92.9138 30.159 94.6308 30.0445C96.3996 29.9266 97.5561 27.1791 98.9729 23.491C99.546 21.9992 99.4259 20.2255 99.2574 18.5081C99.1858 17.7783 98.7967 17.391 98.4079 17.0773C96.1527 15.2575 91.5307 14.9219 87.3308 14.7088C86.9403 14.689 88.0144 13.7265 88.5703 12.9688C89.1349 12.1992 88.9937 10.3077 88.8565 8.12324C88.7648 6.66371 87.8999 5.74214 87.0148 4.93414C83.9515 2.13781 76.6299 3.02989 74.3236 3.60615C73.1236 3.90596 72.2973 5.05489 71.6081 6.01764C70.8778 7.0377 71.0244 8.22538 71.2421 8.95834C71.3531 9.33188 71.7318 9.60196 71.7095 9.61225C70.3142 10.2557 66.0064 8.69402 62.5767 9.48861C59.7014 10.1547 58.0998 12.1612 57.5465 12.7433C56.3389 14.0138 57.0062 16.3289 57.6094 18.1102C57.9726 19.1829 58.9558 19.89 60.0027 20.3174C60.5832 20.5543 61.382 20.4627 61.7361 20.6465C62.2808 20.9292 61.4327 22.2217 60.724 24.3956C60.4998 25.0834 60.5748 25.9607 60.6981 26.5848C61.1088 27.5813 62.4843 28.6556 64.335 29.7607C65.1062 30.1752 65.5366 30.2925 66.1878 30.3696" stroke="black" stroke-width="6" stroke-linecap="round"/>
<path d="M74.1598 19.8953C74.1598 19.8364 74.4771 20.0756 74.9738 20.735C75.1532 21.125 75.1851 21.6273 75.2015 21.6854C75.2179 21.7435 75.2179 21.3421 75.2662 20.873" stroke="black" stroke-width="6" stroke-linecap="round"/>
<path d="M49.7973 70.0874C49.8263 70.0874 45.0535 74.6404 37.2717 81.919C33.3696 85.5689 30.0549 87.3931 25.1509 89.8383C15.2913 94.7544 13.2906 93.7517 12.2941 93.5805C11.0931 93.3742 13.271 90.7863 13.292 84.8896C13.3182 77.5169 12.6568 74.7623 13.3713 73.8111C14.9466 71.714 13.5976 87.413 14.9424 91.2439C15.1936 91.9595 15.9064 89.9102 16.693 86.1454C18.6476 76.7905 19.1635 69.4065 18.9288 68.5923C17.8996 65.0215 17.2004 79.4806 17.4946 84.1721C17.6222 86.2074 21.3307 86.1752 23.1742 86.0387C26.2405 85.8118 31.6961 73.6776 33.3286 71.5349C36.6008 67.2399 26.135 81.7136 23.9966 84.7724C22.9769 86.231 20.8619 87.7744 19.6594 89.3896C19.3263 89.8371 19.8126 89.6941 20.1738 89.458C20.8685 89.0039 21.5564 88.0823 22.8021 86.7448C24.5884 84.8269 30.5757 81.27 38.0056 76.8928C42.7503 74.0976 43.3246 72.6044 44.0585 71.1007C44.5388 70.1165 44.7124 69.104 44.5997 68.4146C44.3261 66.7421 40.3385 65.8927 36.2912 62.0494C32.7682 58.7039 31.5957 52.4351 30.8412 50.8294C30.6822 50.491 30.7493 50.0825 30.9318 50.2575C31.7026 50.9964 34.3595 55.9568 38.3097 62.2922C40.9421 66.514 41.8918 68.9622 42.3278 69.2615C42.8201 69.5996 39.419 64.0293 34.1977 57.0102C29.4034 50.5652 28.5347 47.9431 27.4736 47.5994C25.7211 47.0318 24.1089 47.6652 23.409 48.1303C21.9324 49.1115 22.2 55.877 23.0732 63.6687C23.258 65.3179 24.9108 69.4332 27.1872 76.1589C28.9088 81.2452 28.9491 85.3071 28.8109 87.9512C28.7599 88.928 28.2834 89.1117 27.845 89.1111C25.8597 89.1081 24.0963 86.5916 22.5409 84.3829C20.3816 81.3166 20.5726 73.8039 21.0375 68.6181C21.3977 64.6009 22.5675 61.7138 22.4969 60.7023C22.4652 60.2479 22.1684 59.953 21.9109 60.1252C17.5234 63.0583 21.4877 74.9552 22.2903 77.0976C22.4279 77.4649 22.7644 77.7247 23.0538 77.6931C23.7659 77.6156 24.1905 76.5778 24.8134 75.9439C27.2792 73.434 32.6519 74.2935 33.7344 73.5562C35.0148 72.684 29.2519 66.3744 27.2275 62.4709C27.0343 62.0983 27.1356 61.6796 27.2643 61.6555C28.716 61.3833 28.7219 64.7583 31.3867 68.7951C33.1749 71.5039 35.063 73.0227 35.9742 73.5197C36.3449 73.7219 36.6932 73.3913 36.9485 73.0889C37.2039 72.7866 37.3975 72.4123 37.4155 71.92C37.4555 70.8199 34.6407 66.4151 29.6903 59.2958C25.2302 52.8814 22.0506 50.055 22.0625 50.6606C22.082 51.6538 22.8438 53.9607 24.1632 57.6091C29.3571 71.9712 30.6756 73.2229 30.536 73.8558C30.3581 74.6623 28.8376 74.2136 27.9953 73.9205C27.1848 73.6385 26.4782 73.1332 25.8936 72.5077C25.3546 71.9312 25.1277 71.0692 24.5829 67.4349C23.2298 58.4083 22.4645 51.9915 22.0334 51.3618C21.5574 50.6664 20.4339 50.4596 19.4765 50.3827C16.8984 50.1758 17.2738 62.4024 16.4892 67.6454C16.4106 68.508 16.3551 69.6391 16.3146 70.9374C16.2742 72.2356 16.2505 73.6667 16.0095 74.3288" stroke="black" stroke-width="6" stroke-linecap="round"/>
<path d="M57.7913 96.7422C57.8367 97.0991 58.4437 98.4946 59.1718 99.9253C59.2937 100.308 59.3618 100.685 59.3968 101.242C59.4319 101.798 59.4319 102.521 59.5227 103.646" stroke="black" stroke-width="6" stroke-linecap="round"/>
<path d="M85.6575 91.0195C85.672 91.0195 85.6864 91.0195 85.7012 91.6281C85.7159 92.2366 85.7304 93.4537 85.7902 94.307C85.8501 95.1603 85.9549 95.6128 86.341 96.8665" stroke="black" stroke-width="6" stroke-linecap="round"/>
<path d="M73.8159 111.589C73.8159 111.558 74.296 111.508 75.3342 111.308C75.8923 111.142 76.5139 110.846 77.1782 110.503C77.8425 110.16 78.5308 109.779 79.9029 109.234" stroke="black" stroke-width="6" stroke-linecap="round"/>
<path d="M77.1162 112.082C77.1162 112.097 77.1162 112.112 77.1162 112.397C77.1162 112.682 77.1162 113.236 77.1829 113.717C77.2495 114.198 77.3828 114.588 77.6167 115.355" stroke="black" stroke-width="6" stroke-linecap="round"/>
<path d="M33.3922 128.934C33.3922 128.919 33.3922 128.903 33.4702 129.09C33.5482 129.277 33.7042 129.667 33.9024 130.013C34.1006 130.359 34.3363 130.649 35.2568 131.842" stroke="black" stroke-width="6" stroke-linecap="round"/>
<path d="M39.8612 126.219C39.8612 126.205 39.8612 126.19 39.9621 126.354C40.0631 126.517 40.265 126.858 41.013 127.94" stroke="black" stroke-width="6" stroke-linecap="round"/>
<path d="M113.808 107.988C113.808 108.003 113.808 108.018 114.15 108.441C114.493 108.863 115.178 109.693 115.662 110.257C116.145 110.82 116.405 111.093 116.673 111.374" stroke="black" stroke-width="6" stroke-linecap="round"/>
<path d="M120.883 104.211C120.88 104.223 120.877 104.234 121.282 104.626C121.687 105.018 122.5 105.791 123.338 106.586" stroke="black" stroke-width="6" stroke-linecap="round"/>
</svg>
