<svg width="108" height="100" viewBox="0 0 108 100" fill="none" xmlns="http://www.w3.org/2000/svg">
<path d="M4 36.2043C4 35.8685 4.42115 31.1937 6.51907 22.8889C8.52343 14.9543 17.248 11.1561 23.3622 7.68123C28.9044 4.53147 35.7835 3.55874 42.7336 4.17534C57.9784 5.52782 59.8219 35.7474 59.4014 56.0777C59.2439 63.6956 51.9841 66.7715 48.311 67.8242C46.6142 68.3106 45.0563 65.707 44.0788 63.5859C43.1012 61.4647 42.7 59.1398 43.2758 56.8082C44.4923 51.8827 49.0412 48.3865 53.5891 45.8897C58.6171 43.1293 70.2876 44.0752 84.0576 45.3544C93.3046 46.2135 97.3886 52.2933 100.08 56.9344C101.383 59.7059 102.558 63.3227 103.266 70.5016C103.974 77.6804 104.179 88.3116 102.691 95.3933" stroke="black" stroke-width="8" stroke-linecap="round"/>
</svg>
